<?xml version="1.0" encoding="UTF-8"?>
<!--
Copyright (c) 2023 (Holloway) Chew, Kean Ho <hollowaykeanho@gmail.com>
Copyright (c) 2023 AJ Matillano (https://codepen.io/ajmatillano/pen/pLpMMM)

Permission is hereby granted, free of charge, to any person obtaining a copy of
this software and associated documentation files (the "Software"), to deal in
the Software without restriction, including without limitation the rights to
use, copy, modify, merge, publish, distribute, sublicense, and/or sell copies of
the Software, and to permit persons to whom the Software is furnished to do so,
subject to the following conditions:

The above copyright notice and this permission notice shall be included in all
copies or substantial portions of the Software.

THE SOFTWARE IS PROVIDED "AS IS", WITHOUT WARRANTY OF ANY KIND, EXPRESS OR
IMPLIED, INCLUDING BUT NOT LIMITED TO THE WARRANTIES OF MERCHANTABILITY, FITNESS
FOR A PARTICULAR PURPOSE AND NONINFRINGEMENT. IN NO EVENT SHALL THE AUTHORS OR
COPYRIGHT HOLDERS BE LIABLE FOR ANY CLAIM, DAMAGES OR OTHER LIABILITY, WHETHER
IN AN ACTION OF CONTRACT, TORT OR OTHERWISE, ARISING FROM, OUT OF OR IN
CONNECTION WITH THE SOFTWARE OR THE USE OR OTHER DEALINGS IN THE SOFTWARE.
-->
<svg width="900px" height="563px"
	viewBox="0 0 900 563" version="1.1"
	xmlns="http://www.w3.org/2000/svg" xmlns:xlink="http://www.w3.org/1999/xlink">
	<style>
		.floating-island {
			animation: floatAnim 6s ease-in-out infinite;
		}
		.floating-balloon {
			animation: floatAnim2 5s ease-in-out infinite;
		}

		@keyframes floatAnim {
			0% {
				transform: translate(281px, 123px);
			}
			50% {
				transform: translate(281px, 138px);
			}
			100% {
				transform: translate(281px, 123px);
			}
		}
		@keyframes floatAnim2 {
			0% {
				transform: translate(295px, 82px);
			}
			50% {
				transform: translate(295px, 87px);
			}
			100% {
				transform: translate(295px, 82px);
			}
		}
	</style>
	<defs>
		<radialGradient
			cx="74.7177227%"
			cy="7.90408032%"
			fx="74.7177227%"
			fy="7.90408032%"
			r="122.206401%"
			gradientTransform="translate(0.747177,0.079041),scale(0.625000,1.000000),rotate(125.854270),translate(-0.747177,-0.079041)"
			id="radialGradient-1"
		>
			<stop stop-color="#BBF2F4" offset="0%"></stop>
			<stop stop-color="#7CD6DA" offset="100%"></stop>
		</radialGradient>
		<path
			d="M39.8055083,96.9911504 L43.1711156,96.4653791 C66.1271818,81.5936725 78.2494462,64.585458 79.537909,45.4407358 C81.334413,18.7472434 60.4324913,0 39.8055083,0 C19.1785253,0 -1.38374612,18.7163022 0.073107659,45.4407358 C1.05261102,63.4086835 13.1916561,80.430517 36.490243,96.5062361 L39.8055083,96.9911504 Z"
			id="path-2"
		></path>
		<linearGradient x1="50%" y1="2.14956647%" x2="50%" y2="98.7185411%" id="linearGradient-4">
			<stop stop-color="#7BE1E4" offset="0%"></stop>
			<stop stop-color="#2B77C3" offset="100%"></stop>
		</linearGradient>
		<linearGradient x1="13.9530412%" y1="6.12538352%" x2="100%" y2="160.517846%" id="linearGradient-5">
			<stop stop-color="#FFFFFF" offset="0%"></stop>
			<stop stop-color="#E1E1E1" offset="100%"></stop>
		</linearGradient>
		<linearGradient x1="74.5685363%" y1="24.8149244%" x2="44.0012055%" y2="103.897574%" id="linearGradient-6">
			<stop stop-color="#F5515F" offset="0%"></stop>
			<stop stop-color="#9F041B" offset="100%"></stop>
		</linearGradient>
		<radialGradient
			cx="72.8046674%"
			cy="0%"
			fx="72.8046674%"
			fy="0%"
			r="545.184986%"
			gradientTransform="translate(0.728047,0.000000),scale(0.163371,1.000000),rotate(162.165390),translate(-0.728047,-0.000000)"
			id="radialGradient-7"
		>
			<stop stop-color="#FFA2AA" offset="0%"></stop>
			<stop stop-color="#B05160" offset="100%"></stop>
		</radialGradient>
		<radialGradient
			cx="72.8046674%"
			cy="0%"
			fx="72.8046674%"
			fy="0%"
			r="545.184986%"
			gradientTransform="translate(0.728047,0.000000),scale(0.163371,1.000000),rotate(162.165390),translate(-0.728047,-0.000000)"
			id="radialGradient-8"
		>
			<stop stop-color="#D6FFA2" offset="0%"></stop>
			<stop stop-color="#B05160" offset="96.9111272%"></stop>
		</radialGradient>
		<path
			d="M0.290376106,18.6891593 L16.6150442,10.4646018 L95.0359513,0.00276548673 C98.6201615,4.10306194 102.054353,6.15321017 105.338527,6.15321017 C106.134068,6.15321017 104.830398,4.49211548 109.343668,4.23470338 C118.756024,3.69787424 153.127641,2.28722828 212.458518,0.00276548673 L326.741047,16.1934363 L308.357301,30.1327434 L297.591676,27.1778208 L275.315851,36.7450221 L243.800709,42.2681598 L215.83166,49.4150083 C202.79768,50.4933897 192.967916,51.1308648 186.342369,51.3274336 C179.716822,51.5240025 167.478584,52.1932528 149.627655,53.3351846 C140.922082,48.8695171 133.390902,45.9241182 127.034117,44.4989877 C120.677331,43.0738573 108.98989,41.7106254 91.971792,40.409292 L87.4873104,36.7450221 L37.6096867,34.2689505 L34.5685841,27.1778208 L0.290376106,18.6891593 Z"
			id="path-9"
		></path>
		<polygon
			id="path-11"
			points="0.246083811 5.20034413 1.90047807 0.185304717 13.5702278 1.10232897 28.1327454 3.1009864 47.4290429 3.87990729 56.2930419 11.825181 47.4290429 7.59379282 23.4920796 9.49189971 5.40665639 4.95486147"
		></polygon>
		<polygon
			id="path-13"
			points="0 23.0993627 2.57484502 18.9213185 7.28745921 10.8348381 9.21683686 2.82824166 16.7657611 0.63026029 20.5168084 1.13686838e-13 20.5168084 1.72619335 22.8287478 1.72619335 22.8287478 3.72011278 25.1831411 3.72011278 25.1831411 5.55658039 27.6669902 5.55658039 27.6669902 7.55778126 30.3746691 7.55778126 30.3746691 9.43826251 32.7019615 9.43826251 32.7019615 10.8839615 36.529151 10.8839615 38.6836446 12.5053858 42.2066975 12.5053858 44.234574 14.0315207 47.3928293 14.0315207 49.2085755 15.3980111 52.1100683 15.3980111 52.1100683 17.7288844 57.1955489 17.7288844 59.601724 19.5397185 61.5827874 19.5397185 63.2192071 20.7712518 65.4439685 20.7712518 67.2467329 22.1279724 67.2467329 23.991331 64.5302461 28.4323793 26.244063 23.0993627"
		></polygon>
		<polygon
			id="path-15"
			points="0 27.9473771 2.34446415 22.8924594 6.63542338 13.1088165 8.39217251 3.42182324 15.2656667 0.762537141 19.3890586 1.13686838e-13 19.3890586 2.08848084 20.7861757 2.08848084 20.7861757 4.50087719 22.9299127 4.50087719 22.9299127 6.72277627 25.1915227 6.72277627 25.1915227 9.14398227 27.6569356 9.14398227 27.6569356 11.4191324 29.7759965 11.4191324 29.7759965 13.1682498 33.2607533 13.1682498 35.2224764 15.1299729 38.4303088 15.1299729 40.2767437 16.9764078 43.1524183 16.9764078 44.805703 18.6296925 47.4475885 18.6296925 47.4475885 21.4497614 52.0780524 21.4497614 54.2689381 23.6406471 56.0727485 23.6406471 57.5627517 25.1306503 59.5884556 25.1306503 61.22992 26.7721147 61.22992 29.0265487 58.7564873 34.3996688 23.8959099 27.9473771"
		></polygon>
	</defs>
	<g id="Floating-Island---Aj-Matillano" stroke="none" stroke-width="1" fill="none" fill-rule="evenodd">
		<rect id="bg" fill="url(#radialGradient-1)" x="0" y="0" width="900" height="562.5"></rect>
		<path
			d="M800.384,529.784 L799.752,529.784 C799.613333,529.784 799.501334,529.762667 799.416,529.72 C799.330666,529.677333 799.274667,529.586667 799.248,529.448 L799.088,528.696 C798.874666,528.888001 798.666668,529.059999 798.464,529.212 C798.261332,529.364001 798.048001,529.491999 797.824,529.596 C797.599999,529.700001 797.361335,529.778666 797.108,529.832 C796.854665,529.885334 796.573335,529.912 796.264,529.912 C795.949332,529.912 795.654668,529.868 795.38,529.78 C795.105332,529.692 794.866668,529.560001 794.664,529.384 C794.461332,529.207999 794.300001,528.985335 794.18,528.716 C794.059999,528.446665 794,528.128002 794,527.76 C794,527.439998 794.087999,527.132001 794.264,526.836 C794.440001,526.539999 794.723998,526.277334 795.116,526.048 C795.508002,525.818666 796.02133,525.630667 796.656,525.484 C797.29067,525.337333 798.066662,525.253333 798.984,525.232 L798.984,524.6 C798.984,523.970664 798.849335,523.494668 798.58,523.172 C798.310665,522.849332 797.912003,522.688 797.384,522.688 C797.037332,522.688 796.745335,522.732 796.508,522.82 C796.270665,522.908 796.065334,523.006666 795.892,523.116 C795.718666,523.225334 795.569334,523.324 795.444,523.412 C795.318666,523.5 795.194667,523.544 795.072,523.544 C794.976,523.544 794.892,523.518667 794.82,523.468 C794.748,523.417333 794.690667,523.354667 794.648,523.28 L794.392,522.824 C794.840002,522.391998 795.322664,522.069334 795.84,521.856 C796.357336,521.642666 796.930664,521.536 797.56,521.536 C798.013336,521.536 798.415998,521.610666 798.768,521.76 C799.120002,521.909334 799.415999,522.117332 799.656,522.384 C799.896001,522.650668 800.077333,522.973331 800.2,523.352 C800.322667,523.730669 800.384,524.146664 800.384,524.6 L800.384,529.784 Z M796.688,528.912 C796.938668,528.912 797.167999,528.886667 797.376,528.836 C797.584001,528.785333 797.779999,528.713334 797.964,528.62 C798.148001,528.526666 798.323999,528.413334 798.492,528.28 C798.660001,528.146666 798.823999,527.994668 798.984,527.824 L798.984,526.136 C798.327997,526.157333 797.770669,526.209333 797.312,526.292 C796.853331,526.374667 796.480001,526.482666 796.192,526.616 C795.903999,526.749334 795.694667,526.906666 795.564,527.088 C795.433333,527.269334 795.368,527.471999 795.368,527.696 C795.368,527.909334 795.402666,528.093333 795.472,528.248 C795.541334,528.402667 795.634666,528.529333 795.752,528.628 C795.869334,528.726667 796.007999,528.798666 796.168,528.844 C796.328001,528.889334 796.501332,528.912 796.688,528.912 Z M804.128,521.68 L804.128,530.384 C804.128,530.709335 804.085334,531.011999 804,531.292 C803.914666,531.572001 803.780001,531.815999 803.596,532.024 C803.411999,532.232001 803.174668,532.395999 802.884,532.516 C802.593332,532.636001 802.245335,532.696 801.84,532.696 C801.663999,532.696 801.504001,532.682667 801.36,532.656 C801.215999,532.629333 801.072001,532.589334 800.928,532.536 L800.992,531.768 C801.002667,531.698666 801.026666,531.654667 801.064,531.636 C801.101334,531.617333 801.16,531.608 801.24,531.608 C801.282667,531.608 801.328,531.609333 801.376,531.612 C801.424,531.614667 801.482666,531.616 801.552,531.616 C801.968002,531.616 802.263999,531.518668 802.44,531.324 C802.616001,531.129332 802.704,530.816002 802.704,530.384 L802.704,521.68 L804.128,521.68 Z M804.448,519.136 C804.448,519.274667 804.42,519.403999 804.364,519.524 C804.308,519.644001 804.233334,519.750666 804.14,519.844 C804.046666,519.937334 803.938667,520.010666 803.816,520.064 C803.693333,520.117334 803.562667,520.144 803.424,520.144 C803.285333,520.144 803.156001,520.117334 803.036,520.064 C802.915999,520.010666 802.809334,519.937334 802.716,519.844 C802.622666,519.750666 802.549334,519.644001 802.496,519.524 C802.442666,519.403999 802.416,519.274667 802.416,519.136 C802.416,518.997333 802.442666,518.865334 802.496,518.74 C802.549334,518.614666 802.622666,518.505334 802.716,518.412 C802.809334,518.318666 802.915999,518.245334 803.036,518.192 C803.156001,518.138666 803.285333,518.112 803.424,518.112 C803.562667,518.112 803.693333,518.138666 803.816,518.192 C803.938667,518.245334 804.046666,518.318666 804.14,518.412 C804.233334,518.505334 804.308,518.614666 804.364,518.74 C804.42,518.865334 804.448,518.997333 804.448,519.136 Z M806.608,529.784 L806.608,521.68 L807.456,521.68 C807.658668,521.68 807.786666,521.778666 807.84,521.976 L807.944,522.808 C808.242668,522.439998 808.577331,522.138668 808.948,521.904 C809.318669,521.669332 809.749331,521.552 810.24,521.552 C810.789336,521.552 811.233332,521.703998 811.572,522.008 C811.910668,522.312002 812.154666,522.722664 812.304,523.24 C812.416001,522.946665 812.563999,522.693334 812.748,522.48 C812.932001,522.266666 813.138666,522.090667 813.368,521.952 C813.597334,521.813333 813.841332,521.712 814.1,521.648 C814.358668,521.584 814.621332,521.552 814.888,521.552 C815.314669,521.552 815.694665,521.619999 816.028,521.756 C816.361335,521.892001 816.643999,522.090665 816.876,522.352 C817.108001,522.613335 817.285333,522.934665 817.408,523.316 C817.530667,523.697335 817.592,524.133331 817.592,524.624 L817.592,529.784 L816.168,529.784 L816.168,524.624 C816.168,523.98933 816.029335,523.508002 815.752,523.18 C815.474665,522.851998 815.072003,522.688 814.544,522.688 C814.309332,522.688 814.086668,522.729333 813.876,522.812 C813.665332,522.894667 813.480001,523.015999 813.32,523.176 C813.159999,523.336001 813.033334,523.537332 812.94,523.78 C812.846666,524.022668 812.8,524.303998 812.8,524.624 L812.8,529.784 L811.376,529.784 L811.376,524.624 C811.376,523.97333 811.245335,523.488002 810.984,523.168 C810.722665,522.847998 810.341336,522.688 809.84,522.688 C809.487998,522.688 809.161335,522.782666 808.86,522.972 C808.558665,523.161334 808.282668,523.418665 808.032,523.744 L808.032,529.784 L806.608,529.784 Z M825.696,529.784 L825.064,529.784 C824.925333,529.784 824.813334,529.762667 824.728,529.72 C824.642666,529.677333 824.586667,529.586667 824.56,529.448 L824.4,528.696 C824.186666,528.888001 823.978668,529.059999 823.776,529.212 C823.573332,529.364001 823.360001,529.491999 823.136,529.596 C822.911999,529.700001 822.673335,529.778666 822.42,529.832 C822.166665,529.885334 821.885335,529.912 821.576,529.912 C821.261332,529.912 820.966668,529.868 820.692,529.78 C820.417332,529.692 820.178668,529.560001 819.976,529.384 C819.773332,529.207999 819.612001,528.985335 819.492,528.716 C819.371999,528.446665 819.312,528.128002 819.312,527.76 C819.312,527.439998 819.399999,527.132001 819.576,526.836 C819.752001,526.539999 820.035998,526.277334 820.428,526.048 C820.820002,525.818666 821.33333,525.630667 821.968,525.484 C822.60267,525.337333 823.378662,525.253333 824.296,525.232 L824.296,524.6 C824.296,523.970664 824.161335,523.494668 823.892,523.172 C823.622665,522.849332 823.224003,522.688 822.696,522.688 C822.349332,522.688 822.057335,522.732 821.82,522.82 C821.582665,522.908 821.377334,523.006666 821.204,523.116 C821.030666,523.225334 820.881334,523.324 820.756,523.412 C820.630666,523.5 820.506667,523.544 820.384,523.544 C820.288,523.544 820.204,523.518667 820.132,523.468 C820.06,523.417333 820.002667,523.354667 819.96,523.28 L819.704,522.824 C820.152002,522.391998 820.634664,522.069334 821.152,521.856 C821.669336,521.642666 822.242664,521.536 822.872,521.536 C823.325336,521.536 823.727998,521.610666 824.08,521.76 C824.432002,521.909334 824.727999,522.117332 824.968,522.384 C825.208001,522.650668 825.389333,522.973331 825.512,523.352 C825.634667,523.730669 825.696,524.146664 825.696,524.6 L825.696,529.784 Z M822,528.912 C822.250668,528.912 822.479999,528.886667 822.688,528.836 C822.896001,528.785333 823.091999,528.713334 823.276,528.62 C823.460001,528.526666 823.635999,528.413334 823.804,528.28 C823.972001,528.146666 824.135999,527.994668 824.296,527.824 L824.296,526.136 C823.639997,526.157333 823.082669,526.209333 822.624,526.292 C822.165331,526.374667 821.792001,526.482666 821.504,526.616 C821.215999,526.749334 821.006667,526.906666 820.876,527.088 C820.745333,527.269334 820.68,527.471999 820.68,527.696 C820.68,527.909334 820.714666,528.093333 820.784,528.248 C820.853334,528.402667 820.946666,528.529333 821.064,528.628 C821.181334,528.726667 821.319999,528.798666 821.48,528.844 C821.640001,528.889334 821.813332,528.912 822,528.912 Z M830.312,529.912 C829.671997,529.912 829.180002,529.733335 828.836,529.376 C828.491998,529.018665 828.32,528.504003 828.32,527.832 L828.32,522.872 L827.344,522.872 C827.258666,522.872 827.186667,522.846667 827.128,522.796 C827.069333,522.745333 827.04,522.666667 827.04,522.56 L827.04,521.992 L828.368,521.824 L828.696,519.32 C828.706667,519.24 828.741333,519.174667 828.8,519.124 C828.858667,519.073333 828.933333,519.048 829.024,519.048 L829.744,519.048 L829.744,521.84 L832.064,521.84 L832.064,522.872 L829.744,522.872 L829.744,527.736 C829.744,528.077335 829.826666,528.330666 829.992,528.496 C830.157334,528.661334 830.370665,528.744 830.632,528.744 C830.781334,528.744 830.910666,528.724 831.02,528.684 C831.129334,528.644 831.224,528.6 831.304,528.552 C831.384,528.504 831.452,528.46 831.508,528.42 C831.564,528.38 831.613333,528.36 831.656,528.36 C831.730667,528.36 831.797333,528.405333 831.856,528.496 L832.272,529.176 C832.026665,529.405334 831.730668,529.585333 831.384,529.716 C831.037332,529.846667 830.680002,529.912 830.312,529.912 Z M835.408,521.68 L835.408,529.784 L833.984,529.784 L833.984,521.68 L835.408,521.68 Z M835.728,519.136 C835.728,519.274667 835.7,519.403999 835.644,519.524 C835.588,519.644001 835.513334,519.750666 835.42,519.844 C835.326666,519.937334 835.218667,520.010666 835.096,520.064 C834.973333,520.117334 834.842667,520.144 834.704,520.144 C834.565333,520.144 834.436001,520.117334 834.316,520.064 C834.195999,520.010666 834.089334,519.937334 833.996,519.844 C833.902666,519.750666 833.829334,519.644001 833.776,519.524 C833.722666,519.403999 833.696,519.274667 833.696,519.136 C833.696,518.997333 833.722666,518.865334 833.776,518.74 C833.829334,518.614666 833.902666,518.505334 833.996,518.412 C834.089334,518.318666 834.195999,518.245334 834.316,518.192 C834.436001,518.138666 834.565333,518.112 834.704,518.112 C834.842667,518.112 834.973333,518.138666 835.096,518.192 C835.218667,518.245334 835.326666,518.318666 835.42,518.412 C835.513334,518.505334 835.588,518.614666 835.644,518.74 C835.7,518.865334 835.728,518.997333 835.728,519.136 Z M839.504,518 L839.504,529.784 L838.08,529.784 L838.08,518 L839.504,518 Z M843.6,518 L843.6,529.784 L842.176,529.784 L842.176,518 L843.6,518 Z M852.064,529.784 L851.432,529.784 C851.293333,529.784 851.181334,529.762667 851.096,529.72 C851.010666,529.677333 850.954667,529.586667 850.928,529.448 L850.768,528.696 C850.554666,528.888001 850.346668,529.059999 850.144,529.212 C849.941332,529.364001 849.728001,529.491999 849.504,529.596 C849.279999,529.700001 849.041335,529.778666 848.788,529.832 C848.534665,529.885334 848.253335,529.912 847.944,529.912 C847.629332,529.912 847.334668,529.868 847.06,529.78 C846.785332,529.692 846.546668,529.560001 846.344,529.384 C846.141332,529.207999 845.980001,528.985335 845.86,528.716 C845.739999,528.446665 845.68,528.128002 845.68,527.76 C845.68,527.439998 845.767999,527.132001 845.944,526.836 C846.120001,526.539999 846.403998,526.277334 846.796,526.048 C847.188002,525.818666 847.70133,525.630667 848.336,525.484 C848.97067,525.337333 849.746662,525.253333 850.664,525.232 L850.664,524.6 C850.664,523.970664 850.529335,523.494668 850.26,523.172 C849.990665,522.849332 849.592003,522.688 849.064,522.688 C848.717332,522.688 848.425335,522.732 848.188,522.82 C847.950665,522.908 847.745334,523.006666 847.572,523.116 C847.398666,523.225334 847.249334,523.324 847.124,523.412 C846.998666,523.5 846.874667,523.544 846.752,523.544 C846.656,523.544 846.572,523.518667 846.5,523.468 C846.428,523.417333 846.370667,523.354667 846.328,523.28 L846.072,522.824 C846.520002,522.391998 847.002664,522.069334 847.52,521.856 C848.037336,521.642666 848.610664,521.536 849.24,521.536 C849.693336,521.536 850.095998,521.610666 850.448,521.76 C850.800002,521.909334 851.095999,522.117332 851.336,522.384 C851.576001,522.650668 851.757333,522.973331 851.88,523.352 C852.002667,523.730669 852.064,524.146664 852.064,524.6 L852.064,529.784 Z M848.368,528.912 C848.618668,528.912 848.847999,528.886667 849.056,528.836 C849.264001,528.785333 849.459999,528.713334 849.644,528.62 C849.828001,528.526666 850.003999,528.413334 850.172,528.28 C850.340001,528.146666 850.503999,527.994668 850.664,527.824 L850.664,526.136 C850.007997,526.157333 849.450669,526.209333 848.992,526.292 C848.533331,526.374667 848.160001,526.482666 847.872,526.616 C847.583999,526.749334 847.374667,526.906666 847.244,527.088 C847.113333,527.269334 847.048,527.471999 847.048,527.696 C847.048,527.909334 847.082666,528.093333 847.152,528.248 C847.221334,528.402667 847.314666,528.529333 847.432,528.628 C847.549334,528.726667 847.687999,528.798666 847.848,528.844 C848.008001,528.889334 848.181332,528.912 848.368,528.912 Z M854.224,529.784 L854.224,521.68 L855.072,521.68 C855.274668,521.68 855.402666,521.778666 855.456,521.976 L855.568,522.856 C855.920002,522.466665 856.313331,522.152001 856.748,521.912 C857.182669,521.671999 857.68533,521.552 858.256,521.552 C858.698669,521.552 859.089332,521.625333 859.428,521.772 C859.766668,521.918667 860.049332,522.126665 860.276,522.396 C860.502668,522.665335 860.674666,522.989331 860.792,523.368 C860.909334,523.746669 860.968,524.165331 860.968,524.624 L860.968,529.784 L859.544,529.784 L859.544,524.624 C859.544,524.010664 859.404001,523.534668 859.124,523.196 C858.843999,522.857332 858.416003,522.688 857.84,522.688 C857.418665,522.688 857.025335,522.789332 856.66,522.992 C856.294665,523.194668 855.957335,523.469332 855.648,523.816 L855.648,529.784 L854.224,529.784 Z M866.4,521.552 C866.992003,521.552 867.526664,521.650666 868.004,521.848 C868.481336,522.045334 868.886665,522.325332 869.22,522.688 C869.553335,523.050668 869.809332,523.489331 869.988,524.004 C870.166668,524.518669 870.256,525.09333 870.256,525.728 C870.256,526.368003 870.166668,526.943997 869.988,527.456 C869.809332,527.968003 869.553335,528.405332 869.22,528.768 C868.886665,529.130668 868.481336,529.409332 868.004,529.604 C867.526664,529.798668 866.992003,529.896 866.4,529.896 C865.807997,529.896 865.273336,529.798668 864.796,529.604 C864.318664,529.409332 863.912002,529.130668 863.576,528.768 C863.239998,528.405332 862.981334,527.968003 862.8,527.456 C862.618666,526.943997 862.528,526.368003 862.528,525.728 C862.528,525.09333 862.618666,524.518669 862.8,524.004 C862.981334,523.489331 863.239998,523.050668 863.576,522.688 C863.912002,522.325332 864.318664,522.045334 864.796,521.848 C865.273336,521.650666 865.807997,521.552 866.4,521.552 Z M866.4,528.784 C867.200004,528.784 867.797331,528.516003 868.192,527.98 C868.586669,527.443997 868.784,526.696005 868.784,525.736 C868.784,524.770662 868.586669,524.018669 868.192,523.48 C867.797331,522.941331 867.200004,522.672 866.4,522.672 C865.994665,522.672 865.642668,522.741333 865.344,522.88 C865.045332,523.018667 864.796001,523.218665 864.596,523.48 C864.395999,523.741335 864.246667,524.062665 864.148,524.444 C864.049333,524.825335 864,525.255998 864,525.736 C864,526.216002 864.049333,526.645331 864.148,527.024 C864.246667,527.402669 864.395999,527.721332 864.596,527.98 C864.796001,528.238668 865.045332,528.437333 865.344,528.576 C865.642668,528.714667 865.994665,528.784 866.4,528.784 Z"
			id="ajmatillano"
			fill-opacity="0.2"
			fill="#000000"
		></path>
		<g class="floating-balloon" id="hot-air-balloon" transform="translate(294.787611, 82.000000)">
			<path
				d="M19.0417412,165.118314 L18.7669471,164.895173 C29.0779689,152.197306 35.1345563,139.819982 36.9406575,127.763558 C38.749352,115.689824 39.3531648,107.54859 38.7545906,103.355065 L39.105021,103.305045 C39.7100253,107.543618 39.1044312,115.708868 37.2907335,127.816001 C35.4744425,139.940445 29.390129,152.37443 19.0417412,165.118314 Z"
				id="Path-78"
				fill="#979797"
				fill-rule="nonzero"
			></path>
			<g id="balloon">
				<mask id="mask-3" fill="white">
					<use xlink:href="#path-2"></use>
				</mask>
				<use fill="#D8D8D8" xlink:href="#path-2"></use>
				<ellipse id="Oval-5-Copy-3" fill="url(#linearGradient-4)" mask="url(#mask-3)" cx="39.4992445" cy="48.4955752" rx="42.7368875" ry="48.4955752"></ellipse>
				<ellipse id="Oval-5-Copy-5" fill="url(#linearGradient-5)" mask="url(#mask-3)" cx="40.1467731" cy="48.4955752" rx="33.6714872" ry="48.4955752"></ellipse>
				<ellipse id="Oval-5-Copy-4" fill="url(#linearGradient-4)" mask="url(#mask-3)" cx="39.8230088" cy="48.4955752" rx="19.7496223" ry="48.4955752"></ellipse>
				<path
					d="M26.870179,109.276696 C40.8473678,109.276696 50.5072307,82.9325497 50.5072307,50.4353982 C50.5072307,17.9382467 40.8473678,-8.40589971 26.870179,-8.40589971 C12.8929902,-8.40589971 -5.82775739,13.2063003 -5.82775739,45.7034518 C-5.82775739,78.2006033 12.8929902,109.276696 26.870179,109.276696 Z"
					id="Oval-3"
					fill-opacity="0.05"
					fill="#064245"
					mask="url(#mask-3)"
				></path>
			</g>
			<g id="Basket" transform="translate(34.336283, 95.929204)" fill="#696969">
				<path
					d="M9.56324069,5.71665622 C9.61842241,5.61521781 9.69744765,5.537492 9.79819283,5.49472821 C10.1278672,5.35478975 10.5652848,5.64222801 10.7751925,6.13673952 C10.9851002,6.63125103 10.8880101,7.14557434 10.5583358,7.2855128 C10.4540946,7.32976057 10.3390813,7.33127966 10.2238942,7.29703447 C10.7099648,8.81439202 10.5501006,9.90041673 9.74430164,10.5551086 C7.90054737,12.0531137 3.38235311,12.0605851 1.529403,10.5551086 C0.77738768,9.94411459 0.584659846,8.96301089 0.951219497,7.61179748 C0.767142537,7.74228357 0.564181367,7.78674094 0.390964326,7.71321467 C0.0612899869,7.57327621 -0.0358000723,7.0589529 0.17410761,6.56444139 C0.384015292,6.06992988 0.821432946,5.78249163 1.15110729,5.92243008 C1.29213011,5.98229072 1.39059419,6.11065708 1.44067493,6.27667414 C1.66060186,5.78610268 1.93470109,5.25968258 2.26297263,4.69741384 L2.06799409,0.00879139814 L2.71647323,0.00879139814 L3.28389248,4.54814538 L7.98536625,4.54814538 L8.55278549,0.00879139814 L9.20126463,0.00879139814 L9.00655336,4.69098705 C9.21368798,5.04728193 9.39925043,5.38917165 9.56324069,5.71665622 Z M2.71647323,0.00879139814 L3.13862771,0.00879139814 L4.01343151,4.47221057 L3.54394375,4.54814538 L2.71647323,0.00879139814 Z M7.90430635,0.00879139814 L7.07683583,4.54814538 L6.60734807,4.47221057 L7.48215187,0.00879139814 L7.90430635,0.00879139814 Z"
					id="Combined-Shape"
				></path>
			</g>
		</g>
		<g id="clouds" transform="translate(207.000000, 119.876106)" fill="#FFFFFF">
			<path
				d="M0.0640254639,70.8604875 L78.5995489,70.8604875 L66.0102134,67.3512413 C67.4165339,64.9171278 67.4165339,63.5887726 66.0102134,63.3661757 C64.6038929,63.1435787 61.8415038,64.0346941 57.723046,66.0395218 C59.5831537,64.3060483 59.5831537,62.6990598 57.723046,61.2185562 C55.8629383,59.7380527 54.0271351,59.7380527 52.2156365,61.2185562 C55.8872429,56.5355199 55.8872429,52.392691 52.2156365,48.7900694 C48.5440302,45.1874478 44.2494137,44.6943263 39.3317872,47.3107048 C31.3711018,32.3239067 21.9090473,28.0248837 10.9456236,34.4136358 C-0.0178000649,40.802388 1.52107602,49.7373614 15.5622518,61.2185562 C11.8990398,59.7868099 9.50894641,59.7868099 8.3919717,61.2185562 C7.27499698,62.6503025 8.67884646,64.2572911 12.6035201,66.0395218 C7.82459821,66.4304271 4.80624051,66.8676669 3.54844702,67.3512413 C2.29065353,67.8348158 1.12917968,69.0045645 0.0640254639,70.8604875 Z"
				id="Path-69"
			></path>
			<path
				d="M310.442478,59.6046351 L348.668476,59.6046351 L342.540804,57.8965618 C343.225309,56.7117932 343.225309,56.0652361 342.540804,55.9568903 C341.856298,55.8485446 340.511746,56.2822818 338.507148,57.2581018 C339.412528,56.4143594 339.412528,55.6321816 338.507148,54.9115685 C337.601769,54.1909554 336.708219,54.1909554 335.826499,54.9115685 C337.613598,52.6321703 337.613598,50.6157099 335.826499,48.8621875 C334.039399,47.108665 331.949058,46.8686454 329.555477,48.1421287 C325.740859,42.4778761 321.88437,41.0618129 317.986009,43.8939393 C314.087648,46.7260656 314.087648,50.3986087 317.986009,54.9115685 C316.202995,54.2146873 315.039653,54.2146873 314.495982,54.9115685 C313.952311,55.6084497 314.635614,56.3906275 316.54589,57.2581018 C314.219821,57.4483691 312.750681,57.6611891 312.138468,57.8965618 C311.526256,58.1319344 310.960926,58.7012922 310.442478,59.6046351 Z"
				id="Path-69-Copy"
			></path>
			<path
				d="M387.507763,40.641433 L464.22833,38.8323135 C464.148898,36.4496341 463.367398,34.9435235 461.88383,34.3139817 C459.701444,33.387901 453.681957,34.5885219 450.453258,34.3139817 C448.672479,34.1625599 450.453258,32.2736455 447.403565,30.8912051 C445.370437,29.9695782 442.703148,29.9695782 439.401699,30.8912051 C439.745754,29.8545844 439.745754,28.9691236 439.401699,28.2348227 C439.057644,27.5005218 438.322131,26.8162097 437.195159,26.1818865 C441.491485,25.256498 443.48875,24.21662 443.186953,23.0622524 C442.885156,21.9078848 440.328332,20.807459 435.516481,19.7609749 C439.206876,9.14973445 436.5062,3.26237502 427.414454,2.09889667 C418.322707,0.93541831 412.000135,8.39295698 408.446737,24.4715127 C403.38113,20.5837231 399.454507,20.1139697 396.66687,23.0622524 C393.879233,26.0105352 397.010607,29.0809995 406.060991,32.2736455 C402.544133,31.3520186 400.171498,31.6143736 398.943085,33.0607105 C397.714673,34.5070473 398.942182,35.8705431 402.625615,37.1511977 C396.540354,34.8263441 392.66353,34.3859177 390.995142,35.8299184 C389.326753,37.2739192 390.346859,38.2747175 394.055459,38.8323135 L387.507763,40.641433 Z"
				id="Path-70"
				transform="translate(425.868046, 21.311282) rotate(3.000000) translate(-425.868046, -21.311282) "
			></path>
		</g>
		<g class="floating-island" id="island-full" transform="translate(281.336283, 122.707965)">
			<g id="debris" transform="translate(60.530973, 242.831858)">
				<polygon id="Path-55" fill="#636260" points="3.61109303 0 0 11.4726883 5.58821293 21.8237071 5.58821293 35.0735058 19.6188269 43.539823 27.9646018 28.6143217 15.5766325 3.58513781"></polygon>
				<path
					d="M82.9357049,78.2345068 L85.323272,62.6548673 L96.3132114,67.6114641 C99.4499156,74.6934926 101.018268,78.2345068 101.018268,78.2345068 C101.018268,78.2345068 104.867636,85.6408024 112.566372,100.453394 L110.877125,116.460177 L94.312917,106.091445 L82.9357049,99.0620898 L80.7079646,86.6317103 L82.9357049,78.2345068 Z"
					id="Path-56"
					fill="#636260"
				></path>
				<path
					d="M52.2813481,25.840708 L48.8495575,32.9879766 L52.2813481,41.2606439 C56.8371455,42.7800967 59.1150442,43.539823 59.1150442,43.539823 C59.1150442,43.539823 59.1150442,40.0225409 59.1150442,32.9879766 L52.2813481,25.840708 Z"
					id="Path-57"
					fill="#636260"
				></path>
				<polygon id="Path-58" fill="#636260" points="136.637168 109.441755 134.701878 98.7610619 127.433628 104.101408 129.288887 116.460177"></polygon>
				<polygon id="Path-59" fill="#9A9A9A" points="153.101481 68.3185841 145.132743 52.3733017 156.700066 43.539823 162.831858 55.9292035"></polygon>
				<polygon
					id="Path-60"
					fill="#9A9A9A"
					points="178.053097 62.6548673 178.053097 55.8064271 181.918031 32.1557757 198.113887 19.9310703 204.231716 7.07964602 215.929204 32.1557757 204.231716 49.3807149"
				></polygon>
			</g>
			<g id="island">
				<g id="land" transform="translate(0.000000, 66.548673)">
					<polygon
						id="Path-3"
						fill="#404040"
						points="0.57213477 58.3722246 9.39295836 86.045765 22.0792978 89.1579921 28.291795 106.124925 28.291795 124.164568 41.6443081 136.692051 47.1257223 144.600729 69.9259457 144.600729 51.3294495 86.045765 43.5830445 63.6298727"
					></polygon>
					<polygon
						id="Path-2"
						fill="#656565"
						points="37.3551741 73.8838239 42.6452769 102.501965 54.4143463 114.250536 57.521449 127.406614 62.7859297 147.200515 76.9822629 160.828038 85.4221718 168.195236 90.3569819 168.195236 92.1402778 160.828038 98.0726403 165.074468 102.16363 160.828038 107.554513 152.106286 98.0726403 123.064527 98.0726403 114.250536 88.2423073 97.1042491 94.0294782 75.9011346 76.9822629 70.3872658"
					></polygon>
					<polygon
						id="Path-9"
						fill="#3E3E3E"
						points="304.255121 67.1315552 326.115869 55.4205624 329.832777 75.4792246 324.055855 81.4952859 324.055855 91.3649061 317.043949 101.678642 310.720423 101.678642 310.720423 94.548875 304.255121 94.548875"
					></polygon>
					<polygon
						id="Path-4"
						fill="#484848"
						points="89.7847557 79.5428844 86.1959582 104.310883 91.6278364 112.749083 100.084827 133.164746 100.084827 155.67117 105.65848 163.06399 113.818255 168.953649 117.933159 183.047494 127.290337 197.898044 131.933056 199.860695 141.08355 192.635272 143.93614 197.898044 151.849943 197.898044 156.566111 197.898044 161.400141 129.215532 154.041483 87.6770366 117.933159 73.7727949"
					></polygon>
					<polygon id="Path-8" fill="#3E3E3E" points="291.416758 110.760811 301.90814 107.084898 304.161174 99.4392735 308.687739 86.7853887 308.687739 65.232106 293.804734 61.5476527"></polygon>
					<polygon
						id="Path-7"
						fill="#464646"
						points="267.087751 139.443861 279.155745 134.966832 285.316998 139.443861 293.012158 134.966832 297.448192 120.956685 295.384762 111.411611 295.384762 85.413754 297.448192 63.8502225 269.986461 73.9401925 269.986461 116.028708"
					></polygon>
					<polygon
						id="Path-6"
						fill="#6A6A6A"
						points="214.946845 195.549355 234.185601 189.241202 238.052825 195.549355 245.245793 195.549355 252.365311 182.430857 255.195696 169.223535 262.916479 169.223535 273.927135 164.32972 273.927135 146.023608 269.750738 141.79255 273.927135 127.633796 278.014709 116.976724 273.927135 106.640782 273.927135 71.6547041 213.001276 83.3964433 205.101139 149.872042 205.101139 178.770317"
					></polygon>
					<polygon
						id="Path-5"
						fill="#898989"
						points="149.701105 92.1062379 149.701105 134.799434 153.204496 176.293517 149.701105 204.783548 164.553363 224.972028 172.397132 240.832088 176.370261 244.805216 181.627909 240.832088 185.467803 232.573242 191.875028 234.58372 201.570418 214.255172 215.61131 199.899982 219.304304 194.03082 215.61131 168.455727 210.980549 161.553996 210.980549 148.133158 215.61131 125.066465 219.304304 110.976036 215.61131 81.3415535"
					></polygon>
					<path
						d="M219.233131,194.143934 L215.61131,199.899982 L201.570418,214.255172 L191.875028,234.58372 L185.467803,232.573242 L181.627909,240.832088 L176.370261,244.805216 L172.397132,240.832088 L164.553363,224.972028 L149.701105,204.783548 L150.547809,197.898044 L143.93614,197.898044 L141.08355,192.635272 L131.933056,199.860695 L127.290337,197.898044 L117.933159,183.047494 L113.818255,168.953649 L105.65848,163.06399 L102.978631,159.509473 L102.16363,160.828038 L98.0726403,165.074468 L92.1402778,160.828038 L90.3569819,168.195236 L85.4221718,168.195236 L76.9822629,160.828038 L62.7859297,147.200515 L62.0944782,144.600729 L47.1257223,144.600729 L41.6443081,136.692051 L28.291795,124.164568 L28.291795,106.124925 L22.0792978,89.1579921 L9.39295836,86.045765 L0.57213477,58.3722246 L43.5830445,63.6298727 L46.8374313,73.0471421 L76.9822629,70.3872658 L94.0294782,75.9011346 L93.2281564,78.837028 L117.933159,73.7727949 L154.041483,87.6770366 L154.682015,91.2927384 L215.61131,81.3415535 L215.800167,82.8570361 L273.927135,71.6547041 L273.927135,72.4923128 L293.624843,65.254995 L293.804734,61.5476527 L308.081125,65.0819319 L326.115869,55.4205624 L329.832777,75.4792246 L324.055855,81.4952859 L324.055855,91.3649061 L317.043949,101.678642 L310.720423,101.678642 L310.720423,94.548875 L305.910574,94.548875 L304.161174,99.4392735 L301.90814,107.084898 L295.384762,109.370524 L295.384762,111.411611 L297.448192,120.956685 L293.012158,134.966832 L285.316998,139.443861 L279.155745,134.966832 L270.85587,138.04595 L269.750738,141.79255 L273.927135,146.023608 L273.927135,164.32972 L262.916479,169.223535 L255.195696,169.223535 L252.365311,182.430857 L245.245793,195.549355 L238.052825,195.549355 L234.185601,189.241202 L219.233131,194.143934 Z M64.1420665,176.283186 L76.107606,179.868324 L88.4955752,204.897508 L80.1498003,219.823009 L66.1191864,211.356692 L66.1191864,198.106893 L60.5309735,187.755874 L64.1420665,176.283186 Z M143.466678,254.517693 L145.854245,238.938053 L156.844185,243.89465 C159.980889,250.976678 161.549241,254.517693 161.549241,254.517693 C161.549241,254.517693 165.398609,261.923988 173.097345,276.736579 L171.408098,292.743363 L154.84389,282.374631 L143.466678,275.345276 L141.238938,262.914896 L143.466678,254.517693 Z M112.812322,202.123894 L119.646018,209.271162 C119.646018,216.305727 119.646018,219.823009 119.646018,219.823009 C119.646018,219.823009 117.368119,219.063282 112.812322,217.54383 L109.380531,209.271162 L112.812322,202.123894 Z M197.168142,285.724941 L189.819861,292.743363 L187.964602,280.384594 L195.232852,275.044248 L197.168142,285.724941 Z M213.632454,244.60177 L205.663717,228.656488 L217.23104,219.823009 L223.362832,232.212389 L213.632454,244.60177 Z M238.584071,238.938053 L238.584071,232.089613 L242.449005,208.438962 L258.64486,196.214256 L264.762689,183.362832 L276.460177,208.438962 L264.762689,225.663901 L238.584071,238.938053 Z"
						id="Combined-Shape"
						fill-opacity="0.6"
						fill="url(#linearGradient-6)"
					></path>
					<path
						d="M0.290376106,57.9811947 L16.6150442,49.7566372 L95.0359513,39.2948009 C98.6201615,43.3950973 102.054353,45.4452456 105.338527,45.4452456 C106.134068,45.4452456 104.830398,43.7841509 109.343668,43.5267388 C118.756024,42.9899096 153.127641,41.5792637 212.458518,39.2948009 L326.741047,55.4854717 L308.357301,69.4247788 L297.591676,66.4698562 L275.315851,76.0370575 L243.800709,81.5601952 L215.83166,88.7070437 C202.79768,89.7854251 192.967916,90.4229002 186.342369,90.619469 C179.716822,90.8160379 167.478584,91.4852882 149.627655,92.62722 C140.922082,88.1615525 133.390902,85.2161536 127.034117,83.7910231 C120.677331,82.3658927 108.98989,81.0026608 91.971792,79.7013274 L87.4873104,76.0370575 L37.6096867,73.5609859 L34.5685841,66.4698562 L0.290376106,57.9811947 Z"
						id="face"
						fill="url(#radialGradient-7)"
					></path>
					<g id="Group-8" transform="translate(0.000000, 39.292035)">
						<mask id="mask-10" fill="white">
							<use xlink:href="#path-9"></use>
						</mask>
						<use id="face-copy" fill="url(#radialGradient-8)" xlink:href="#path-9"></use>
						<path
							d="M30.7159269,30.1273933 L110.775453,26.1140161 C121.391872,28.7896009 126.700081,30.1273933 126.700081,30.1273933 C126.700081,30.1273933 163.941207,21.5044734 238.423457,4.25863373 L238.423457,17.1930135 L229.544284,32.5489859 L279.124755,40.173272 L309.169687,22.3290057 L339.743708,17.1930135 C337.925817,8.44950392 332.93491,2.94722035 324.770985,0.68616279 C312.525097,-2.70542355 183.292091,-24.6602924 171.430583,-24.6602924 C163.522911,-24.6602924 106.061902,-16.211474 -0.952445235,0.68616279 L-5.20323345,30.1273933 L30.7159269,30.1273933 Z"
							id="shadow"
							fill-opacity="0.115998641"
							fill="#000000"
							mask="url(#mask-10)"
						></path>
						<ellipse id="Oval-5" fill-opacity="0.115998641" fill="#000000" mask="url(#mask-10)" cx="187.610619" cy="45.840708" rx="8.14159292" ry="1"></ellipse>
						<ellipse id="Oval-5-Copy" fill-opacity="0.115998641" fill="#000000" mask="url(#mask-10)" cx="212.566372" cy="38.5840708" rx="11.5044248" ry="1.4159292"></ellipse>
						<ellipse id="Oval-5-Copy-2" fill-opacity="0.115998641" fill="#000000" mask="url(#mask-10)" cx="201.238938" cy="31.8584071" rx="11.5044248" ry="1.4159292"></ellipse>
						<ellipse id="Oval-5-Copy-6" fill-opacity="0.115998641" fill="#000000" mask="url(#mask-10)" cx="196.637168" cy="21.7699115" rx="9.02654867" ry="1"></ellipse>
					</g>
					<g id="mount-port" transform="translate(46.725664, 6.017699)">
						<polygon
							id="Path-12"
							fill="#E6D79B"
							points="54.0467472 40.3147932 59.7544329 41.3350982 66.617775 38.7083634 95.0273641 9.40957825 98.6582211 0.164688185 86.0839299 4.46975217 73.6789998 8.19674809 71.4180291 10.392609 71.4180291 22.6223024 67.888055 28.8606361 62.8056583 36.5233541 58.7528905 34.0287539 56.3802117 28.8606361 49.5322836 25.0581482 51.5166076 15.4360428 46.6851819 18.2288223 44.638886 22.6223024 46.6851819 32.5057202"
						></polygon>
						<polygon
							id="Path-12-Copy"
							fill="#B2A87E"
							points="59.7544329 41.3350982 66.617775 38.7083634 95.0273641 9.40957825 98.6582211 0.164688185 86.0839299 4.46975217 73.6789998 8.19674809 71.4180291 10.392609 71.4180291 22.6223024 67.888055 28.8606361 62.8056583 36.5233541"
						></polygon>
						<polygon
							id="Path-10"
							fill="#CABD88"
							points="0.111853402 40.2748456 4.39665075 23.7584424 6.23925152 16.3786589 10.1750467 14.6714055 24.6853602 18.4584526 32.5582908 16.3786589 51.3702246 19.9588092 47.9637732 25.5963529 52.3913753 31.5616892 54.597136 40.2748456 32.5582908 40.2748456 17.2708368 37.828824"
						></polygon>
						<polygon
							id="Path-11"
							fill="#E6D79B"
							points="6.42150148 16.7860411 24.9037922 20.3600166 40.4875044 18.5730289 48.2907511 20.3600166 51.616813 20.3600166 51.616813 15.1953742 42.1435057 14.241912 24.9037922 12.4018091 12.3164334 12.4018091 6.42150148 14.241912"
						></polygon>
					</g>
					<g id="mount-well" transform="translate(206.725664, 0.000000)">
						<path
							d="M39.8806778,45.4568245 L30.8179612,44.2542361 L0.318003365,8.51905216 L3.27295829,3.68899082 L5.55980556,0.305482385 C8.90041699,1.02166766 10.85434,1.47161928 11.4215744,1.65533727 C11.9888089,1.83905526 13.0497092,2.83876655 14.6042751,4.65447114 L16.862753,7.77500542 L22.764047,20.3920736 L28.2167497,33.1507691 L33.0813875,40.9916396 L39.8806778,36.8310571 L43.6085014,32.1003928 L47.3187607,26.6336987 L50.0788725,22.4425108 L51.3309595,29.8939762 L47.3187607,43.21277 L39.8806778,45.4568245 Z"
							id="Path-15"
							fill="#E6D79B"
						></path>
						<polygon
							id="Path-15-Copy"
							fill="#B2A87E"
							points="39.8806778 45.4568245 30.8179612 44.2542361 33.0813875 40.9916396 39.8806778 36.8310571 43.6085014 32.1003928 47.3187607 26.6336987 50.0788725 22.4425108 51.3309595 29.8939762 47.3187607 43.21277"
						></polygon>
						<polygon
							id="Path-13"
							fill="#CABD88"
							points="40.5172907 43.5793592 43.4378763 36.5818106 47.3271247 31.7449238 48.5272073 27.1964489 54.0065951 25.2385877 71.780042 30.4418165 95.9393838 28.610106 105.096264 34.1529123 110.540375 45.5655562 110.540375 52.9425821 105.096264 54.8319739 103.743445 52.9425821 71.780042 52.9425821 47.3271247 50.4490903 40.5172907 45.5655562"
						></polygon>
						<g id="Group-11" transform="translate(48.141593, 21.946903)">
							<mask id="mask-12" fill="white">
								<use xlink:href="#path-11"></use>
							</mask>
							<use id="Path-14" fill="#E6D79B" xlink:href="#path-11"></use>
							<path
								d="M29.9931785,4.32849558 L20.4797,8.76646303 L23.813377,9.57738121 L36.7567583,5.78317555 C34.6515095,5.96703654 33.1714514,5.96703654 32.3165841,5.78317555 C31.4617167,5.59931457 30.6872482,5.11442124 29.9931785,4.32849558 Z"
								id="Path-77"
								fill-opacity="0.115998641"
								fill="#000000"
								mask="url(#mask-12)"
							></path>
						</g>
					</g>
				</g>
				<g id="Group-12" transform="translate(8.849558, 0.000000)">
					<g id="bucket" transform="translate(202.123894, 40.707965)" fill="#696969">
						<path
							d="M0,3.18584071 L2.12389381,3.18584071 L2.12389381,5.35003085 C1.62978256,5.55915483 1.27580026,5.66371681 1.0619469,5.66371681 C0.848093542,5.66371681 0.494111242,5.55915483 0,5.35003085 L0,3.18584071 Z"
							id="Rectangle-11"
						></path>
					</g>
					<g id="house-staris" transform="translate(139.469027, 32.212389)">
						<polygon
							id="Path-28"
							fill="#E6D79B"
							points="59.9150931 10.4306874 60.8849558 7.40564387 58.1449124 5.65185073 57.2798998 1.32560582 53.4969334 -1.13686838e-13 27.0200729 3.68784647 18.9488523 3.68784647 13.7888929 7.40564387 9.45657934 10.4306874 4.24754118 12.6503839 0 16.7852756 5.21405757 23.3628319 47.5918696 23.3628319"
						></polygon>
						<polygon
							id="Path-28-Copy"
							fill="#B2A87E"
							points="18.9488523 3.68784647 13.7888929 7.40564387 9.45657934 10.4306874 4.24754118 12.6503839 0 16.7852756 5.21405757 23.3628319 16.8192277 9.44315861"
						></polygon>
						<polygon
							id="Path-19"
							fill="#CABD88"
							points="66.1946903 37.0466363 65.4194904 34.7000755 63.156484 31.0919023 61.7288931 26.5440806 60.2646973 10.4445999 57.8937276 7.43362832 51.0492544 9.18618789 34.568061 9.18618789 32.9664363 10.4445999 27.5591869 9.18618789 17.0741322 9.18618789 12.7836532 12.2458061 10.619469 14.015008 10.619469 16.7136169 55.0398302 40 64.520498 38.2026343"
						></polygon>
					</g>
					<g id="stairs2" transform="translate(131.327434, 47.079646)">
						<g id="stairs" transform="translate(2.831858, 0.000000)">
							<mask id="mask-14" fill="white">
								<use xlink:href="#path-13"></use>
							</mask>
							<use id="Path-16-Copy" fill="#CABD88" xlink:href="#path-13"></use>
							<path
								d="M12.2989458,1.40285203 L20.5059415,-0.182897877 L21.4529844,1.40285203 L12.2989458,3.70749713 L12.2989458,1.40285203 Z M14.9426047,3.76070604 L23.1936489,1.69273065 L23.1936489,3.5951102 L14.9426047,6.04816567 L14.9426047,3.76070604 Z M17.8234886,5.90095027 L25.6068933,3.60343993 L25.4942949,5.4432526 L17.5813408,8.02864293 L17.8234886,5.90095027 Z M20.2832165,7.96195703 L27.6458349,5.4719647 L27.7719942,7.39023983 L20.1040333,10.2492527 L20.2832165,7.96195703 Z M23.5051845,10.232774 L30.9939622,7.36402759 L30.6639106,9.31457708 L23.5051845,12.3345349 L23.5051845,10.232774 Z M26.0473682,12.3361885 L33.2060943,9.24871152 L32.9890399,10.7597929 L26.0473682,13.947585 L26.0473682,12.3361885 Z M30.4046603,13.9399806 L36.7297533,10.8118776 L38.7341666,12.4380661 L32.9264756,15.765341 L30.4046603,13.9399806 Z M36.1553021,16.0015002 L42.3863362,12.402095 L44.1454961,13.8979233 L38.9503569,17.5448785 L36.1553021,16.0015002 Z M42.1702144,17.642602 L47.8358203,13.7488512 L49.4408371,15.2281459 L44.5563061,19.0252485 L42.1702144,17.642602 Z M47.391054,18.7437187 L52.3176086,15.2461582 L52.3176086,17.4329064 L47.7027536,21.737311 L47.391054,18.7437187 Z M53.4533793,21.6161984 L57.5153973,17.421884 L59.9279237,19.3590139 L55.8078565,24.0524306 L53.4533793,21.6161984 Z M57.5722543,24.0895645 L61.5006404,19.3901994 L63.1524538,20.3941841 L59.6234172,25.2846608 L57.5722543,24.0895645 Z M62.29011,25.0521138 L65.3579678,20.5398956 L67.0301431,21.9857196 L64.1341112,26.7435236 L62.29011,25.0521138 Z"
								id="Combined-Shape"
								fill="#E6D79B"
								mask="url(#mask-14)"
							></path>
						</g>
						<polygon
							id="Path-16"
							fill="#CABD88"
							points="0.350126922 37.7790669 3.74669375 11.8602576 6.51829914 9.77932762 7.96368321 2.11337171 11.1879328 2.11337171 15.3541831 1.4159292 15.3541831 3.32612509 17.9220308 3.32612509 17.9220308 5.53258517 20.5370316 5.53258517 20.5370316 7.56480994 23.2958177 7.56480994 23.2958177 9.77932762 26.3032092 9.77932762 26.3032092 11.8602576 28.8881093 11.8602576 28.8881093 13.4600601 33.1389299 13.4600601 35.5319042 15.2543191 39.4449234 15.2543191 41.6972652 16.9431314 45.2051074 16.9431314 47.2218384 18.4552821 50.4444971 18.4552821 50.4444971 21.0346134 56.0928888 21.0346134 58.7654031 23.0384723 60.9657502 23.0384723 62.7833051 24.4012801 65.254325 24.4012801 67.2566372 25.9026195 67.2566372 27.9646018 78.9606743 27.9646018 81.1031855 29.814479 82.9708385 34.0614391 86.7262943 38.7065704 93.1447629 55.8549084 98.1132991 63.8208414 82.9708385 66.4197875 60.9657502 66.4197875 41.6972652 61.3912931"
						></polygon>
					</g>
					<g id="stairs1" transform="translate(104.070796, 78.230088)">
						<g id="stairs" transform="translate(9.203540, 0.000000)">
							<mask id="mask-16" fill="white">
								<use xlink:href="#path-15"></use>
							</mask>
							<use id="Path-16-Copy" fill="#CABD88" xlink:href="#path-15"></use>
							<path
								d="M11.520824,1.69727776 L19.6620118,-0.270180059 L19.6620118,2.04799511 L11.520824,4.48561382 L11.520824,1.69727776 Z M13.6056348,4.54999003 L21.1184276,2.04799511 L21.1184276,4.3496395 L13.6056348,7.31753377 L13.6056348,4.54999003 Z M16.2287554,7.13942131 L23.3157502,4.35971745 L23.2132264,6.58566364 L16.0082734,9.71366676 L16.2287554,7.13942131 Z M18.7907126,9.63298505 L25.4945704,6.62040174 L25.6094417,8.94127782 L18.6275616,12.4003305 L18.7907126,9.63298505 Z M21.402089,12.3803933 L28.2208182,8.90956425 L27.9202976,11.2694883 L21.402089,14.9232644 L21.402089,12.3803933 Z M23.7168142,14.925265 L30.2350227,11.1897991 L30.037389,13.018021 L23.7168142,16.8748559 L23.7168142,14.925265 Z M27.6842433,16.8656555 L33.443407,13.0810371 L35.2684781,15.0485245 L29.9804225,19.0741163 L27.6842433,16.8656555 Z M32.920354,19.3598397 L38.5938745,15.0050038 L40.1956359,16.8147714 L35.465325,21.2271369 L32.920354,19.3598397 Z M38.3970899,21.3453703 L43.5557732,16.6344126 L45.0171833,18.4241765 L40.5696892,23.0182019 L38.3970899,21.3453703 Z M43.4346125,22.9794955 L47.6365594,18.4459691 L47.6365594,21.0916646 L43.4346125,26.2994627 L43.4346125,22.9794955 Z M48.6707085,26.1529314 L52.3692828,21.0783288 L54.5659516,23.4220168 L50.814522,29.1004716 L48.6707085,26.1529314 Z M52.7433628,29.1453991 L56.3202617,23.4597474 L57.8242813,24.6744449 L54.6110006,30.5913181 L52.7433628,29.1453991 Z M57.0390946,30.3099649 L59.8324598,24.8507379 L61.3550195,26.6000064 L58.7181062,32.3563619 L57.0390946,30.3099649 Z"
								id="Combined-Shape"
								fill="#E6D79B"
								mask="url(#mask-16)"
							></path>
						</g>
						<polygon
							id="Path-16"
							fill="#CABD88"
							points="0.078290206 33.1780822 2.68544462 27.556776 7.45719313 16.6769048 6.04106105 7.73799198 7.45719313 5.88108086 9.36642691 3.92969586 17.0544296 2.94726143 20.8525454 2.09928426 20.8525454 4.4217732 23.1934953 4.4217732 23.1934953 7.10447142 25.5774318 7.10447142 25.5774318 9.57532771 28.0924484 9.57532771 28.0924484 12.2678227 30.8341035 12.2678227 30.8341035 14.7978967 33.190599 14.7978967 33.190599 16.7429974 37.0658124 16.7429974 39.2473408 18.9245258 42.8146013 18.9245258 44.8679238 20.9778483 48.0658092 20.9778483 49.9043395 22.8163786 52.8422406 22.8163786 52.8422406 25.9524279 57.9915342 25.9524279 60.4279022 28.3887959 62.4338242 28.3887959 64.0907779 30.0457495 66.3434558 30.0457495 68.1688414 31.8711352 68.1688414 34.3781718 42.8146013 40.6342125 25.5774318 41.9943858 11.3536398 38.7575156"
						></polygon>
					</g>
					<path
						d="M186.19469,150.442478 L186.19469,151.238659 L185.132743,151.504425 L185.132743,150.442478 L181.59292,150.442478 L182.398535,148.318584 L181.59292,148.318584 L184.681111,140.176991 L183.362832,140.176991 L185.486726,135.575221 L187.610619,140.176991 L186.292341,140.176991 L189.380531,148.318584 L188.574916,148.318584 L189.380531,150.442478 L186.19469,150.442478 Z M30.5365044,123.185841 L31.5044248,125.663717 L27.6106195,125.663717 L27.6106195,126.793437 L26.5486726,127.079646 L26.5486726,125.663717 L22.6548673,125.663717 L23.6227876,123.185841 L22.6548673,123.185841 L25.2820796,116.460177 L22.6548673,116.460177 L23.7704478,113.628319 L22.6548673,113.628319 L26.1410566,104.778761 L24.4247788,104.778761 L26.9026549,99.1150442 L29.380531,104.778761 L28.3722178,104.778761 L31.8584071,113.628319 L30.7428265,113.628319 L31.8584071,116.460177 L28.8772124,116.460177 L31.5044248,123.185841 L30.5365044,123.185841 Z M68.2584071,129.911504 L68.6725664,130.973451 L62.6548673,130.973451 L62.6548673,132.647588 L60.8849558,133.097345 L60.8849558,130.973451 L54.8672566,130.973451 L56.3858407,127.079646 L54.8672566,127.079646 L60.2513274,113.274336 L58.0530973,113.274336 L61.7699115,105.132743 L65.4867257,113.274336 L63.2884956,113.274336 L66.9303752,122.612489 L70.2584071,112.212389 L68.3185841,112.212389 L71.3274336,104.070796 L74.3362832,112.212389 L72.7504425,112.212389 L77.1681416,126.017699 L75.9221239,126.017699 L77.1681416,129.911504 L72.2123894,129.911504 L72.2123894,131.585642 L70.7964602,132.035398 L70.7964602,129.911504 L68.2584071,129.911504 Z M203.893805,136.637168 L203.893805,138.05954 L202.477876,138.40708 L202.477876,136.637168 L197.522124,136.637168 L198.788291,133.451327 L197.522124,133.451327 L201.742682,122.831858 L200,122.831858 L203.00885,116.460177 L206.017699,122.831858 L204.275017,122.831858 L208.495575,133.451327 L207.229408,133.451327 L208.416964,136.439371 L213.171681,124.247788 L210.973451,124.247788 L214.690265,116.106195 L218.40708,124.247788 L216.20885,124.247788 L217.830649,128.406247 L220.079341,122.477876 L218.761062,122.477876 L220.884956,117.876106 L223.00885,122.477876 L221.690571,122.477876 L224.778761,130.619469 L223.973146,130.619469 L224.778761,132.743363 L221.59292,132.743363 L221.59292,133.539544 L220.530973,133.80531 L220.530973,132.743363 L219.522124,132.743363 L221.59292,138.053097 L220.074336,138.053097 L221.59292,141.946903 L215.575221,141.946903 L215.575221,143.62104 L213.80531,144.070796 L213.80531,141.946903 L207.787611,141.946903 L209.306195,138.053097 L207.787611,138.053097 L208.339823,136.637168 L203.893805,136.637168 Z M46.3716814,115.39823 L46.3716814,116.194412 L45.3097345,116.460177 L45.3097345,115.39823 L41.7699115,115.39823 L42.5755264,113.274336 L41.7699115,113.274336 L44.8581019,105.132743 L43.539823,105.132743 L45.6637168,100.530973 L47.7876106,105.132743 L46.4693317,105.132743 L49.5575221,113.274336 L48.7519072,113.274336 L49.5575221,115.39823 L46.3716814,115.39823 Z M85.3097345,117.876106 L85.3097345,118.672288 L84.2477876,118.938053 L84.2477876,117.876106 L80.7079646,117.876106 L81.5135795,115.752212 L80.7079646,115.752212 L83.796155,107.610619 L82.4778761,107.610619 L84.6017699,103.00885 L86.7256637,107.610619 L85.4073848,107.610619 L88.4955752,115.752212 L87.6899603,115.752212 L88.4955752,117.876106 L85.3097345,117.876106 Z M196.460177,127.079646 L196.460177,127.875828 L195.39823,128.141593 L195.39823,127.079646 L191.858407,127.079646 L192.664022,124.955752 L191.858407,124.955752 L194.946597,116.814159 L193.628319,116.814159 L195.752212,112.212389 L197.876106,116.814159 L196.557827,116.814159 L199.646018,124.955752 L198.840403,124.955752 L199.646018,127.079646 L196.460177,127.079646 Z M208.849558,113.982301 L208.849558,114.778482 L207.787611,115.044248 L207.787611,113.982301 L204.247788,113.982301 L205.053403,111.858407 L204.247788,111.858407 L207.335978,103.716814 L206.017699,103.716814 L208.141593,99.1150442 L210.265487,103.716814 L208.947208,103.716814 L212.035398,111.858407 L211.229783,111.858407 L212.035398,113.982301 L208.849558,113.982301 Z M276.814159,134.159292 L276.814159,134.955474 L275.752212,135.221239 L275.752212,134.159292 L272.212389,134.159292 L273.018004,132.035398 L272.212389,132.035398 L275.30058,123.893805 L273.982301,123.893805 L276.106195,119.292035 L278.230088,123.893805 L276.91181,123.893805 L280,132.035398 L279.194385,132.035398 L280,134.159292 L276.814159,134.159292 Z M307.610619,124.955752 L307.610619,125.751934 L306.548673,126.017699 L306.548673,124.955752 L303.00885,124.955752 L303.814464,122.831858 L303.00885,122.831858 L306.09704,114.690265 L304.778761,114.690265 L306.902655,110.088496 L309.026549,114.690265 L307.70827,114.690265 L310.79646,122.831858 L309.990845,122.831858 L310.79646,124.955752 L307.610619,124.955752 Z M245,127.433628 L246.371681,130.973451 L245.274336,130.973451 L246.371681,133.80531 L241.769912,133.80531 L241.769912,135.207238 L240.353982,135.575221 L240.353982,133.80531 L235.39823,133.80531 L236.495575,130.973451 L235.39823,130.973451 L239.787611,119.646018 L237.876106,119.646018 L240.884956,113.274336 L243.893805,119.646018 L241.982301,119.646018 L243.139479,122.632283 L245.212084,117.168142 L243.893805,117.168142 L246.017699,112.566372 L248.141593,117.168142 L246.823314,117.168142 L249.604328,124.499907 L252.463717,117.168142 L250.265487,117.168142 L253.982301,109.026549 L257.699115,117.168142 L255.500885,117.168142 L257.575594,122.487909 L259.2442,118.230088 L257.699115,118.230088 L260.530973,112.212389 L263.362832,118.230088 L261.463765,118.230088 L265.486726,128.495575 L264.376943,128.495575 L265.486726,131.327434 L261.238938,131.327434 L261.238938,132.770249 L260.163971,133.018579 L260.884956,134.867257 L254.867257,134.867257 L254.867257,136.541394 L253.097345,136.99115 L253.097345,134.867257 L247.079646,134.867257 L248.59823,130.973451 L247.079646,130.973451 L248.460177,127.433628 L246.725664,127.433628 L246.725664,128.22981 L245.663717,128.495575 L245.663717,127.433628 L245,127.433628 Z M249.10589,125.309735 L249.195924,125.547098 L249.288496,125.309735 L249.10589,125.309735 Z M290.169912,126.017699 L287.433628,126.017699 L287.433628,127.086089 L286.017699,127.433628 L286.017699,126.017699 L281.415929,126.017699 L282.641253,122.831858 L281.415929,122.831858 L285.50034,112.212389 L283.893805,112.212389 L286.725664,105.840708 L289.557522,112.212389 L287.950987,112.212389 L290.972045,120.067141 L294.587611,110.79646 L292.389381,110.79646 L296.106195,102.654867 L299.823009,110.79646 L297.624779,110.79646 L303.00885,124.60177 L301.490265,124.60177 L303.00885,128.495575 L296.99115,128.495575 L296.99115,130.169712 L295.221239,130.619469 L295.221239,128.495575 L289.20354,128.495575 L290.169912,126.017699 Z M259.504425,131.327434 L259.823009,132.144316 L259.823009,131.327434 L259.504425,131.327434 Z M38.0646917,125.309735 L38.0646917,126.711663 L36.8141593,127.079646 L36.8141593,125.309735 L31.8584071,125.309735 L33.101662,122.123894 L31.8584071,122.123894 L36.278869,110.79646 L34.3362832,110.79646 L37.3451327,104.070796 L40.3539823,110.79646 L38.7653788,110.79646 L43.1858407,122.123894 L41.9425858,122.123894 L43.1858407,125.309735 L38.0646917,125.309735 Z M21.4116123,122.477876 L22.6548673,125.663717 L17.5337182,125.663717 L17.5337182,127.065646 L16.2831858,127.433628 L16.2831858,125.663717 L11.3274336,125.663717 L12.5706885,122.477876 L11.3274336,122.477876 L13.3995251,117.168142 L10.498597,117.168142 L11.3274336,119.292035 L10.0841787,119.292035 L11.3274336,122.477876 L6.20628458,122.477876 L6.20628458,123.879805 L4.95575221,124.247788 L4.95575221,122.477876 L0,122.477876 L1.24325491,119.292035 L0,119.292035 L4.4204619,107.964602 L2.47787611,107.964602 L5.48672566,101.238938 L8.49557522,107.964602 L6.90697172,107.964602 L10.3820419,116.869469 L11.5087416,113.982301 L10.2654867,113.982301 L14.6859486,102.654867 L12.7433628,102.654867 L15.7522124,95.9292035 L18.7610619,102.654867 L17.1724585,102.654867 L21.5929204,113.982301 L20.3496654,113.982301 L21.5929204,117.168142 L20.5827757,117.168142 L22.6548673,122.477876 L21.4116123,122.477876 Z"
						id="trees"
						fill="#375537"
					></path>
					<path
						d="M83.1858407,87.7876106 L83.1858407,88.6451227 L82.4778761,88.8495575 L82.4778761,87.7876106 L79.6460177,87.7876106 L80.200077,86.3716814 L79.6460177,86.3716814 L82.2777992,79.6460177 L81.0619469,79.6460177 L82.8318584,76.1061947 L84.6017699,79.6460177 L83.3859177,79.6460177 L86.0176991,86.3716814 L85.4636399,86.3716814 L86.0176991,87.7876106 L83.1858407,87.7876106 Z"
						id="Combined-Shape"
						fill="#375537"
					></path>
					<path
						d="M161.415929,36.1061947 L161.415929,36.9637067 L160.707965,37.1681416 L160.707965,36.1061947 L157.876106,36.1061947 L158.430165,34.6902655 L157.876106,34.6902655 L160.507888,27.9646018 L159.292035,27.9646018 L161.061947,24.4247788 L162.831858,27.9646018 L161.616006,27.9646018 L164.247788,34.6902655 L163.693728,34.6902655 L164.247788,36.1061947 L161.415929,36.1061947 Z"
						id="Combined-Shape"
						fill="#375537"
					></path>
					<path
						d="M158.230088,36.460177 L158.230088,37.0250372 L157.876106,37.1681416 L157.876106,36.460177 L155.752212,36.460177 L156.183628,35.3982301 L155.752212,35.3982301 L157.621681,30.7964602 L156.814159,30.7964602 L158.053097,28.3185841 L159.292035,30.7964602 L158.484513,30.7964602 L160.353982,35.3982301 L159.922566,35.3982301 L160.353982,36.460177 L158.230088,36.460177 Z"
						id="Combined-Shape"
						fill="#375537"
					></path>
					<g id="well-puller" transform="translate(195.752212, 29.734513)" fill="#979797" fill-rule="nonzero">
						<path
							d="M80.3395779,58.2314324 L80.6935602,58.2314324 L80.6935602,60.1666214 C64.861395,57.6171249 50.2148556,51.2572356 36.5506669,41.05557 C22.8924763,30.8583827 10.7531221,17.8663663 0.132655595,2.080391 L0.426355554,1.88279595 C11.0251453,17.6365516 23.1371557,30.5993035 36.7624383,40.7719217 C50.3218943,50.895394 64.8469974,57.2211594 80.3395779,59.7508453 L80.3395779,58.2314324 Z"
							id="Path-66"
						></path>
						<path
							d="M80.3395779,56.4615209 L80.6935602,56.4615209 L80.6935602,58.3967099 C64.861395,55.8472134 50.2148556,49.4873241 36.5506669,39.2856585 C22.8924763,29.0884712 10.7531221,16.0964548 0.132655595,0.310479494 L0.426355554,0.112884445 C11.0251453,15.8666401 23.1371557,28.829392 36.7624383,39.0020102 C50.3218943,49.1254825 64.8469974,55.4512479 80.3395779,57.9809338 L80.3395779,56.4615209 Z"
							id="Path-66-Copy"
						></path>
					</g>
					<g id="house" transform="translate(161.061947, 0.000000)">
						<g id="Group-4" transform="translate(0.000000, 6.725664)">
							<polygon id="Path-21" fill="#9A9A9A" points="2.02838732 23.2688451 16.5384752 15.4773656 16.5384752 29.6046233 4.82302753 30.0260697"></polygon>
							<polygon id="Path-22" fill="#CACACA" points="29.3568271 19.4986909 30.1855922 15.4040432 36.2471984 19.4986909 34.5373367 29.1709319 29.3568271 29.1709319"></polygon>
							<g id="Group-10" transform="translate(29.026549, 14.867257)" fill="#000000" fill-opacity="0.115998641">
								<polygon id="Path-76" points="0.209796794 7.99038711 7.10752236 5.58298027 0.209796794 0.147978047"></polygon>
							</g>
							<path
								d="M18.1636977,14.6648928 L15.7565427,10.8395868 C12.1137172,14.046748 9.62000018,15.9250847 8.27539169,16.4745968 C6.93078319,17.0241089 4.91479566,17.355994 2.2274291,17.4702521 L0.119867119,24.1009174 C4.01042492,23.0104067 7.13051119,21.9466007 9.48012594,20.9094994 C11.8297407,19.8723982 14.7242646,17.7908626 18.1636977,14.6648928 Z"
								id="Path-25"
								fill="#965858"
							></path>
							<path
								d="M29.9189659,16.3595022 C31.0423781,18.0785464 31.9648702,19.1589321 32.6864423,19.6006595 C33.4080145,20.0423868 34.9655514,20.4802091 37.359053,20.9141264 L35.4874639,15.4566744 C34.6712953,15.6538151 33.7376215,15.3526798 32.6864423,14.5532683 C31.6352632,13.7538569 30.7127711,12.6433961 29.9189659,11.221886 L29.9189659,16.3595022 Z"
								id="Path-26"
								fill="#965858"
							></path>
							<path
								d="M16.1051836,30.4794378 C18.352082,31.6745178 20.6231224,32.2720578 22.9183047,32.2720578 C25.213487,32.2720578 27.7871985,31.6745178 30.6394391,30.4794378 L30.6394391,8.49118683 L22.5399317,0.102522033 L15.1971703,10.1440818 L16.1051836,30.4794378 Z"
								id="Path-20"
								fill="#D8D8D8"
							></path>
							<g id="Group-9" transform="translate(14.867257, 0.000000)" fill="#000000" fill-opacity="0.115998641">
								<polygon id="Path-75" points="-0.11721012 16.1212056 17.8360004 8.06528271 8.20330096 -2.2498162 -1.65635298 6.9356947"></polygon>
							</g>
							<polygon
								id="Path-49"
								fill="#2A5C20"
								points="19.2315225 28.4847695 20.8127205 27.8476131 22.8306212 27.8476131 26.2631523 29.1386304 27.6968736 30.0564221 29.7591605 28.4847695 31.5365167 28.4847695 31.5365167 30.0564221 30.7977016 31.8347328 26.2631523 33.1687045 20.8127205 33.1687045 17.7476878 31.8347328 15.6171512 31.0625088 13.6608185 30.5081588 10.9785569 31.0625088 12.2662334 29.1386304 13.6608185 29.1386304 15.0659035 29.1386304 17.7476878 28.4847695 17.7476878 29.1386304"
							></polygon>
						</g>
						<g id="Group" transform="translate(11.681416, 0.000000)">
							<polygon
								id="Path-24"
								fill="#633232"
								points="0.822786997 16.5512504 2.06914752 18.9697422 3.97839232 16.5512504 11.0617911 7.1284027 10.7772717 4.03672041 3.97839232 12.9580379"
							></polygon>
							<polygon
								id="Path-24-Copy"
								fill="#633232"
								transform="translate(15.950694, 10.298369) scale(-1, 1) rotate(8.000000) translate(-15.950694, -10.298369) "
								points="10.9734513 15.3463884 12.2198119 17.7648802 14.1290567 15.3463884 20.9279361 6.21187768 20.9279361 2.83185841 14.1290567 11.7531759"
							></polygon>
							<path
								d="M1.1956594,10.5688925 L0.00626548728,18.3836766 C2.11738185,15.6854971 4.00504839,13.4899806 5.66926509,11.7971273 C7.33348179,10.1042739 8.96738794,7.93350055 10.5709835,5.2848072 L10.9820646,0.90142731 C8.67888984,3.61876871 6.90795666,5.55116463 5.66926509,6.69861505 C4.43057352,7.84606548 2.93937162,9.13615795 1.1956594,10.5688925 Z"
								id="Path-23"
								fill="#965858"
							></path>
							<path
								d="M13.8580374,8.71590136 L11.5500263,16.9208205 C14.4765134,14.9614807 16.7718652,13.1353842 18.4360819,11.4425308 C20.1002986,9.74967744 21.7342048,7.57890408 23.3378004,4.93021073 L23.122954,0.83069761 C21.2370642,3.3587945 19.6747735,5.19656816 18.4360819,6.34401859 C17.1973904,7.49146901 15.6713755,8.2820966 13.8580374,8.71590136 Z"
								id="Path-23-Copy"
								fill="#965858"
								transform="translate(17.443913, 8.875759) scale(-1, 1) rotate(3.000000) translate(-17.443913, -8.875759) "
							></path>
							<polygon id="Rectangle-2" fill="#633232" points="10.619469 0 11.3274336 0 11.6814159 6.01769912 10.2654867 6.01769912"></polygon>
						</g>
						<g id="Group-3" transform="translate(5.663717, 15.221239)">
							<circle id="Oval" fill="#3A3A3A" cx="17.1681416" cy="1.23893805" r="1.23893805"></circle>
							<circle id="Oval-Copy" fill="#3A3A3A" cx="27.4336283" cy="14.6902655" r="1.23893805"></circle>
							<rect id="Rectangle-3" fill="#633232" x="12.7433628" y="4.60176991" width="8.84955752" height="1.0619469"></rect>
							<rect id="Rectangle-3-Copy" fill="#633232" x="12.7433628" y="12.3893805" width="8.84955752" height="1.0619469"></rect>
							<rect id="Rectangle-4" fill="#3A3A3A" x="15.9292035" y="7.43362832" width="2.47787611" height="3.18584071"></rect>
							<rect id="Rectangle-4-Copy" fill="#3A3A3A" x="6.72566372" y="14.159292" width="2.12389381" height="2.83185841"></rect>
							<rect id="Rectangle-5" fill="#3A3A3A" x="0.707964602" y="16.2831858" width="3.18584071" height="5.30973451"></rect>
							<rect id="Rectangle-6" fill="#633232" x="0" y="15.5752212" width="4.60176991" height="1.0619469"></rect>
							<polygon
								id="Path-27"
								fill="#B1B1B1"
								points="3.49041142 8.65637705 3.85132366 7.68823755 3.49041142 6.68199101 1.93713569 6.14158913 1.45996938 6.68199101 2.65564652 7.39898309"
							></polygon>
							<polygon id="Rectangle-7" fill="#9A9A9A" points="1.4159292 6.37168142 3.08227959 6.83579983 3.53982301 8.84955752 1.4159292 8.84955752"></polygon>
						</g>
					</g>
					<g id="fences" transform="translate(155.398230, 31.858407)" fill="#696969">
						<path
							d="M9.18445813,7.92430722 L8.93180207,8.74884108 L8.49557522,8.52137435 L8.62128649,7.59584826 L1.46009484,7.59584826 L1.51017181,7.96453075 L1.07394496,8.19199748 L0.0201239257,4.75289091 L1.07394496,4.75289091 L1.13989172,5.23841175 L8.79021508,6.35214261 L8.93180207,5.30973451 L9.98562311,5.30973451 L9.70962967,6.21042905 L19.2676358,6.21042905 L19.1150442,5.45112747 L20.1092629,5.45112747 L20.3112597,8.63696818 L19.7552806,8.63696818 L19.669879,8.21200653 L9.18445813,7.92430722 Z M9.27935803,7.61460486 L19.5498233,7.61460486 L19.4422814,7.07947216 L9.57206566,6.65936418 L9.27935803,7.61460486 Z M1.37739219,6.98696525 L8.70398914,6.98696525 L8.70803099,6.9572079 L1.21920248,5.82232264 L1.37739219,6.98696525 Z"
							id="Combined-Shape"
						></path>
						<path
							d="M41.5355419,3.08470019 L41.6497525,3.04404573 L41.7443598,2.75682136 L41.5503639,1.05822722 L41.3085566,1.56019942 L41.5355419,3.08470019 Z M41.2397901,3.18997616 L41.1167815,1.95830874 L41.0403514,2.11697144 L40.7079646,2.11697144 L41.382632,0.0462938817 L41.9041801,0.323733716 L41.7242133,0.697330029 L42.0112056,2.38287043 L42.6080674,2.6969373 L41.4166884,5.14337415 L40.9582658,5.14337415 L41.0953586,4.72716533 L32.8447132,8.11568146 L32.7683686,8.49557522 L32.2123894,8.49557522 L32.4143863,5.30973451 L33.4086049,5.30973451 L33.2640543,6.02902356 L41.2397901,3.18997616 Z M41.2739043,3.53155663 L33.1052522,6.81922896 L32.9371036,7.65594287 L41.2191895,4.35121928 L41.3239893,4.03305075 L41.2739043,3.53155663 Z"
							id="Combined-Shape"
						></path>
						<polygon id="Path-33" points="19.9315028 6.42600151 32.445754 8.06039535 32.445754 7.50848874 19.9315028 5.98971779"></polygon>
					</g>
					<path
						d="M209.943231,69.343012 L210.143088,68.7494115 L207.282306,65.5234015 L206.871171,66.3775243 L209.943231,69.343012 Z M209.763669,69.8763359 L206.748282,66.6328228 L206.556773,67.0306771 L206.371681,66.8373338 L207.183952,64.4247788 L207.811131,64.4247788 L207.418533,65.2403931 L210.472646,67.7705784 L210.653491,67.2334451 L211.681416,67.2334451 L209.625565,71.5044248 L209.322206,71.1875415 L209.763669,69.8763359 Z"
						id="fence2"
						fill="#696969"
						transform="translate(209.026549, 67.964602) rotate(-18.000000) translate(-209.026549, -67.964602) "
					></path>
					<path
						d="M121.325171,77.7806138 L121.073936,78.5840708 L120.640163,78.3624186 L120.765167,77.4605509 L113.64426,77.4605509 L113.694055,77.8198091 L113.260282,78.0414613 L112.212389,74.6902655 L113.260282,74.6902655 L113.325858,75.1633754 L120.933146,76.248637 L121.073936,75.232875 L122.121829,75.232875 L121.847388,76.1105459 L131.351627,76.1105459 L131.199894,75.3706537 L132.18852,75.3706537 L132.389381,78.4750576 L131.836529,78.4750576 L131.751608,78.0609589 L121.325171,77.7806138 Z M121.419537,77.478828 L131.632227,77.478828 L131.52529,76.9573744 L121.710598,76.5480053 L121.419537,77.478828 Z M113.562023,76.8672322 L120.847405,76.8672322 L120.851424,76.8382355 L113.404723,75.7323603 L113.562023,76.8672322 Z"
						id="fences"
						fill="#696969"
						transform="translate(122.300885, 76.637168) rotate(-17.000000) translate(-122.300885, -76.637168) "
					></path>
					<g id="ladder" transform="translate(210.973451, 72.212389)" fill="#696969">
						<g id="Group-2-Copy" transform="translate(20.135168, 10.821540) scale(-1, 1) rotate(-11.000000) translate(-20.135168, -10.821540) translate(1.020124, 4.980832)">
							<polygon id="Path-41" points="0.523832018 8.09550123 1.51096615 8.09550123 1.51096615 11.4778084 0.741818978 11.4778084"></polygon>
							<polygon id="Path-41-Copy" points="0.225399938 7.85799505 0.85855177 7.85799505 0.85855177 10.0274205 0.365217658 10.0274205"></polygon>
							<polygon id="Path-43" points="37.6283286 0.322922454 38.2136426 3.1124316 36.9131995 4.00194227 36.7961077 1.07789078"></polygon>
						</g>
						<path
							d="M1.23459523,2.91924067 L1.52323554,2.71432546 C7.04223201,10.4882962 12.0642984,15.3217563 16.578387,17.2163081 C21.0966896,19.1126285 27.8387415,19.5943882 36.7997662,18.6546339 L36.8366863,19.0066855 C27.8217892,19.9520896 21.0249518,19.4664151 16.4413975,17.5427087 C11.8536291,15.6172337 6.78837759,10.7422103 1.23459523,2.91924067 Z"
							id="Path-42"
							fill-rule="nonzero"
						></path>
						<path
							d="M2.29654213,1.85729377 L2.58518244,1.65237856 C8.10417891,9.42634932 13.1262453,14.2598094 17.6403339,16.1543612 C22.1586365,18.0506816 28.9006884,18.5324413 37.8617131,17.592687 L37.8986332,17.9447386 C28.8837361,18.8901427 22.0868988,18.4044682 17.5033444,16.4807618 C12.915576,14.5552868 7.85032449,9.68026338 2.29654213,1.85729377 Z"
							id="Path-42-Copy"
							fill-rule="nonzero"
						></path>
						<polygon id="Path-44" points="3.67513168 6.59140359 4.52621105 4.00243134 5.30161817 4.93969301 4.76261871 7.91054993"></polygon>
						<polygon id="Path-45" points="6.42934036 6.36179995 7.07983304 7.04180565 6.7545867 10.3079399 5.71153869 9.11728663"></polygon>
						<polygon id="Path-46" points="8.41269558 8.58367946 8.95636668 9.12667743 8.55955185 12.3256534 7.63701626 11.2783629"></polygon>
						<polygon id="Path-47" points="10.3276031 10.5239837 10.8123985 10.9334037 10.3276031 13.9238546 9.41846688 13.0682273"></polygon>
						<polygon id="Path-48" points="11.9982115 12.0816576 12.6652715 12.6460733 12.1313405 15.4372808 11.2085699 14.7334335"></polygon>
						<polygon id="Path-48-Copy" points="13.8869868 13.4513274 14.5540468 14.015743 14.0201158 16.8069506 13.0973451 16.1031032"></polygon>
						<polygon id="Path-48-Copy-2" points="16.0108806 14.8672566 16.6740055 15.2734963 16.1141896 17.8772253 15.2212389 17.5190324"></polygon>
						<polygon id="Path-48-Copy-3" points="18.1347744 15.9221946 18.8018344 16.1396369 18.1347744 18.6019727 17.1418973 18.2665014"></polygon>
						<polygon id="Path-48-Copy-4" points="20.1973774 16.5842966 20.9257282 16.8476015 20.5773176 19.256945 19.4690265 18.9349616"></polygon>
						<polygon id="Path-48-Copy-5" points="22.7365443 16.9911504 23.3652494 17.1185411 22.9980276 19.5401326 21.9576767 19.4097085"></polygon>
						<polygon id="Path-48-Copy-6" points="24.7991473 17.4149422 25.5195286 17.4149422 25.0749269 19.7706563 24.0707965 19.6429262"></polygon>
						<polygon id="Path-48-Copy-7" points="26.9230411 17.5638082 27.59985 17.5638082 27.2739799 19.9804566 26.241329 19.8383399"></polygon>
						<polygon id="Path-48-Copy-8" points="29.0469349 17.6080117 29.6539346 17.6080117 29.4747441 19.9969086 28.3185841 19.9969086"></polygon>
						<polygon id="Path-48-Copy-9" points="31.0196803 17.6391918 31.7459486 17.6391918 31.7459486 19.8773151 30.4424779 19.9969086"></polygon>
						<polygon id="Path-48-Copy-10" points="33.0783278 17.5366207 33.6494561 17.5366207 33.8099196 19.7961327 32.7212776 19.9228494"></polygon>
						<polygon id="Path-48-Copy-11" points="35.1259248 17.3451327 35.6486212 17.3451327 35.9050966 19.573309 34.6233851 19.7103874"></polygon>
						<g id="Group-2" transform="translate(0.707965, 0.000000)">
							<polygon id="Path-41" points="0.121817666 0.452740241 1.1089518 0.452740241 1.1089518 3.83504738 0.339804626 3.83504738"></polygon>
							<polygon id="Path-41-Copy" points="1.4159292 0.150934737 2.04908104 0.150934737 2.04908104 2.32036024 1.55574692 2.32036024"></polygon>
						</g>
					</g>
					<g id="ladder" transform="translate(100.353982, 86.371681) scale(-1, 1) rotate(-22.000000) translate(-100.353982, -86.371681) translate(89.911504, 76.460177)" fill="#696969">
						<polygon
							id="Path-41"
							transform="translate(19.601897, 17.725057) scale(-1, 1) rotate(-11.000000) translate(-19.601897, -17.725057) "
							points="19.1083298 16.0339035 20.0954639 16.0339035 20.0954639 19.4162107 19.3263167 19.4162107"
						></polygon>
						<polygon
							id="Path-41-Copy"
							transform="translate(20.110770, 16.422783) scale(-1, 1) rotate(-11.000000) translate(-20.110770, -16.422783) "
							points="19.7941937 15.3380706 20.4273455 15.3380706 20.4273455 17.5074961 19.9340114 17.5074961"
						></polygon>
						<polygon
							id="Path-43"
							transform="translate(2.431076, 3.701900) scale(-1, 1) rotate(-11.000000) translate(-2.431076, -3.701900) "
							points="2.55452916 1.86238994 3.13984318 4.65189908 1.83940015 5.54140975 1.7223083 2.61735826"
						></polygon>
						<path
							d="M0.88320831,2.92280173 L1.16665786,2.71076441 C4.41020169,7.04670419 7.24680161,10.3678004 9.67494326,12.6731963 C12.0904419,14.9665884 15.4964625,16.8318356 19.894289,18.2664085 L19.7845127,18.6029388 C15.3400362,17.1531486 11.8885082,15.2629801 9.43121254,12.929904 C6.9865599,10.6088317 4.13772994,7.27341652 0.88320831,2.92280173 Z"
							id="Path-42"
							fill-rule="nonzero"
						></path>
						<path
							d="M1.94175772,1.85615445 L2.23200226,1.65351788 C5.59592279,6.47179708 8.54624674,9.97843368 11.0798159,12.1719759 C13.6060645,14.35918 16.6294556,15.9447722 20.1518978,16.9288788 L20.056649,17.2698056 C16.484979,16.2719458 13.4148317,14.6618326 10.8481159,12.4395923 C8.28872068,10.2236902 5.32098736,6.6963615 1.94175772,1.85615445 Z"
							id="Path-42-Copy"
							fill-rule="nonzero"
						></path>
						<polygon id="Path-44" points="3.32114938 6.59140359 4.17222875 4.00243134 4.94763587 4.93969301 4.40863641 7.91054993"></polygon>
						<polygon id="Path-45" points="6.07535806 6.36179995 6.72585074 7.04180565 6.4006044 10.3079399 5.35755639 9.11728663"></polygon>
						<polygon id="Path-46" points="8.05871328 8.58367946 8.60238438 9.12667743 8.20556955 12.3256534 7.28303396 11.2783629"></polygon>
						<polygon id="Path-47" points="9.97362076 10.5239837 10.4584162 10.9334037 9.97362076 13.9238546 9.06448458 13.0682273"></polygon>
						<polygon id="Path-48" points="11.6442292 12.0816576 12.3112892 12.6460733 11.7773582 15.4372808 10.8545876 14.7334335"></polygon>
						<polygon id="Path-48-Copy" points="13.5330045 13.4513274 14.2000645 14.015743 13.6661335 16.8069506 12.7433628 16.1031032"></polygon>
						<polygon id="Path-48-Copy-2" points="15.6568983 14.8672566 16.3200232 15.2734963 15.7602073 17.8772253 14.8672566 17.5190324"></polygon>
						<polygon id="Path-48-Copy-3" points="17.7807921 15.9221946 18.4478521 16.1396369 17.7807921 18.6019727 16.787915 18.2665014"></polygon>
						<g id="Group-2" transform="translate(0.000000, -0.000000)">
							<polygon
								id="Path-41"
								transform="translate(1.297574, 2.276498) rotate(22.000000) translate(-1.297574, -2.276498) "
								points="0.804006641 0.585344345 1.79114077 0.585344345 1.79114077 3.96765149 1.0219936 3.96765149"
							></polygon>
							<polygon
								id="Path-41-Copy"
								transform="translate(2.414694, 1.368252) rotate(22.000000) translate(-2.414694, -1.368252) "
								points="2.09811818 0.283538841 2.73127001 0.283538841 2.73127001 2.45296435 2.2379359 2.45296435"
							></polygon>
						</g>
					</g>
					<path
						d="M144.102523,46.3341624 L144.30238,45.7405619 L141.441598,42.514552 L141.030463,43.3686747 L144.102523,46.3341624 Z M143.922961,46.8674864 L140.907574,43.6239732 L140.716065,44.0218276 L140.530973,43.8284842 L141.343244,41.4159292 L141.970423,41.4159292 L141.577825,42.2315435 L144.631938,44.7617289 L144.812783,44.2245956 L145.840708,44.2245956 L143.784858,48.4955752 L143.481498,48.178692 L143.922961,46.8674864 Z"
						id="fence2"
						fill="#696969"
						transform="translate(143.185841, 44.955752) scale(-1, 1) rotate(-18.000000) translate(-143.185841, -44.955752) "
					></path>
					<g id="port-platform" transform="translate(49.557522, 70.442478)" fill="#696969">
						<polygon id="Path-50" points="5.1353019 5.44901969 24.1530611 17.9969925 23.768779 16.8999291 6.20356418 5.07141313"></polygon>
						<polygon id="Path-50-Copy" points="6.21868907 4.9123264 23.768779 16.7445589 23.4893853 15.8484482 6.65638945 4.51336917"></polygon>
						<polygon id="Path-51" points="20.2689322 17.760269 20.2689322 16.984964 11.7784727 14.7789782 11.7784727 16.2696236"></polygon>
						<polygon id="Path-52" points="0.287105801 9.71341425 4.8693859 9.71341425 4.8693859 11.2716035 0.287105801 10.4925089"></polygon>
						<polygon id="Path-53" points="0.393214253 14.2479901 0.393214253 15.8855378 5.0842778 15.066764 5.0842778 14.2479901"></polygon>
						<polygon id="Path-54" points="6.60234199 12.2974671 6.60234199 13.6670686 13.8685417 13.6670686 13.8685417 13.1738201"></polygon>
						<rect id="Rectangle-8" x="0" y="0" width="1.0619469" height="17.699115"></rect>
						<rect id="Rectangle-8-Copy" x="4.24778761" y="0" width="1.0619469" height="17.699115"></rect>
						<polygon id="Rectangle-8-Copy-4" points="2.12389381 0.387736731 2.83185841 0.387736731 2.83185841 16.2580004 2.12389381 16.2580004"></polygon>
						<polygon id="Rectangle-8-Copy-5" points="6.01769912 0.387736731 6.72566372 0.387736731 6.72566372 16.2580004 6.01769912 16.2580004"></polygon>
						<polygon id="Rectangle-8-Copy-8" points="13.4513274 7.72441009 14.159292 7.72441009 14.159292 16.6119827 13.4513274 16.6119827"></polygon>
						<polygon id="Rectangle-8-Copy-9" points="21.5929204 12.4123218 22.300885 12.4123218 22.300885 17.3831478 21.5929204 17.3831478"></polygon>
						<polygon id="Rectangle-8-Copy-6" points="11.3274336 7.73950437 12.3893805 7.73950437 12.3893805 19.4690265 11.3274336 19.4690265"></polygon>
						<polygon id="Rectangle-8-Copy-7" points="19.8230088 11.6814159 20.8849558 11.6814159 20.8849558 19.8230088 19.8230088 19.8230088"></polygon>
					</g>
					<g id="well" transform="translate(274.690265, 81.415929)">
						<polygon
							id="Path-61"
							fill="#9A9A9A"
							points="2.47787611 12.36574 3.09181982 12.6564888 4.31625474 13.0973451 6.24649977 13.0973451 7.76334602 13.0973451 8.49557522 12.36574 8.49557522 11.676808 8.16473612 11.3605154 8.16473612 10.9001255 8.49557522 10.4093836 8.49557522 9.67913076 7.94978076 9.48680079 7.32728087 9.09057101 6.24649977 8.84955752 5.26464016 8.84955752 3.70141038 8.84955752 2.9110892 9.09057101 2.47787611 9.67913076 2.9110892 10.4093836 2.9110892 11.3605154 2.47787611 11.8777027"
						></polygon>
						<polygon
							id="Path-62"
							fill="#696969"
							points="3.48611893 9.72117749 3.18584071 9.50406913 3.48611893 9.20353982 4.9148796 9.20353982 6.688364 9.20353982 7.34035897 9.43577932 8.14159292 9.72117749 7.18487492 9.91150442 5.23621911 9.72117749"
						></polygon>
						<polygon id="Path-63" fill="#696969" points="1.91411871 12.0353982 2.47787611 3.89380531 1.6790441 3.89380531 1.4159292 12.0353982"></polygon>
						<polygon
							id="Path-63-Copy"
							fill="#696969"
							transform="translate(9.026549, 7.964602) scale(-1, 1) translate(-9.026549, -7.964602) "
							points="8.99376473 12.0353982 9.55752212 3.89380531 8.75869012 3.89380531 8.49557522 12.0353982"
						></polygon>
						<rect id="Rectangle-9" fill="#696969" x="2.12389381" y="4.95575221" width="6.72566372" height="1"></rect>
						<polygon
							id="Path-65"
							fill="#633232"
							points="1.73111267 3.82446157 1.0619469 5.30973451 1.73111267 5.30973451 4.02503666 4.14745524 5.66417327 2.33420905 6.97922551 4.14745524 9.91150442 5.30973451 9.26310744 3.25452599 5.48672566 1.4159292"
						></polygon>
						<path
							d="M1.25777774,2.1531874 L0,4.95575221 C1.48736489,4.46269544 2.61306449,3.97845924 3.37709881,3.50304362 C4.14113312,3.027628 5.02133322,2.26370552 6.01769912,1.21127618 L5.2554365,0 C4.21647695,0.747359727 3.46761464,1.2445878 3.00884956,1.49168423 C2.55008448,1.73878066 1.96639387,1.95928171 1.25777774,2.1531874 Z"
							id="Path-64"
							fill="#965858"
						></path>
						<path
							d="M5.85954765,2.1531874 L4.60176991,4.95575221 C6.0891348,4.46269544 7.21483441,3.97845924 7.97886872,3.50304362 C8.74290303,3.027628 9.62310313,2.26370552 10.619469,1.21127618 L9.85720641,0 C8.81824686,0.747359727 8.06938455,1.2445878 7.61061947,1.49168423 C7.15185439,1.73878066 6.56816378,1.95928171 5.85954765,2.1531874 Z"
							id="Path-64-Copy"
							fill="#965858"
							transform="translate(7.610619, 2.477876) scale(-1, 1) translate(-7.610619, -2.477876) "
						></path>
					</g>
					<g id="Group-7" transform="translate(275.044248, 87.433628)">
						<circle id="Oval-2" stroke="#696969" cx="1.4159292" cy="1.4159292" r="1"></circle>
						<g id="Group-6">
							<g id="Group-5" transform="translate(0.000000, 1.061947)"></g>
							<g id="Group-5-Copy" transform="translate(1.415929, 1.415929) rotate(-90.000000) translate(-1.415929, -1.415929) translate(0.000000, 1.061947)"></g>
							<g id="Group-5-Copy-2" transform="translate(1.415929, 1.415929) rotate(-45.000000) translate(-1.415929, -1.415929) translate(0.000000, 1.061947)"></g>
							<g id="Group-5-Copy-3" transform="translate(1.415929, 1.415929) rotate(-315.000000) translate(-1.415929, -1.415929) translate(0.000000, 1.061947)"></g>
						</g>
					</g>
					<path
						d="M189.198103,34.5266017 C189.267093,35.2553337 189.632316,36.1000538 190.297945,37.0574871 L190.0073,37.2595496 C189.309791,36.25626 188.921199,35.35749 188.845696,34.5599644 C188.770804,33.7688868 188.962645,32.6299058 189.41795,31.1350987 L189.432083,31.0886976 L189.467898,31.0559853 C190.121845,30.4586896 190.301707,29.2622128 189.978403,27.4569887 C189.652363,25.636484 189.02176,24.355238 188.09387,23.6064318 L188.316175,23.3309612 C189.319245,24.1404384 189.987042,25.4972529 190.326842,27.3945857 C190.663908,29.2766575 190.478489,30.5759613 189.742871,31.2833817 C189.309758,32.7154142 189.129225,33.799047 189.198103,34.5266017 Z"
						id="Path-71"
						fill="#2A5C20"
						fill-rule="nonzero"
					></path>
					<path
						d="M186.316681,36.4412819 C186.804865,35.8561466 187.048958,35.351258 187.048958,34.9266162 C187.048958,34.5019745 186.804865,33.7520651 186.316681,32.6768882"
						id="Path-72"
						stroke="#2A5C20"
					></path>
					<path
						d="M177.756412,25.380574 C177.836498,26.1568041 177.815538,26.7589266 177.713147,27.846069 C177.607706,28.9655898 177.592373,29.3581647 177.673354,29.9021383 C177.693024,30.0342629 177.718972,30.163144 177.751725,30.2899869 C177.99769,31.2425314 178.650513,32.176028 179.734717,33.1076277 L181.878964,35.5881068 L181.61117,35.8196013 L179.485658,33.3577761 C178.369094,32.4010483 177.674941,31.4084535 177.408985,30.3784888 C177.373089,30.2394732 177.344697,30.0984561 177.32323,29.9542613 C177.236482,29.3715469 177.252465,28.9623168 177.360724,27.8128765 C177.461086,26.7472881 177.481387,26.1640769 177.404298,25.4169028 C177.267202,24.0881122 176.985742,22.9772307 176.561475,22.0842822 L176.530637,22.0193773 L178.250295,16.9622939 L178.58543,17.0762565 L176.911869,21.997782 C177.337682,22.9183583 177.618713,24.0459482 177.756412,25.380574 Z"
						id="Path-73"
						fill="#2A5C20"
						fill-rule="nonzero"
					></path>
					<circle id="Oval-4" fill="#2A5C20" cx="179.646018" cy="31.6814159" r="1"></circle>
					<circle id="Oval-4-Copy-3" fill="#2A5C20" cx="178.584071" cy="34.159292" r="1"></circle>
					<circle id="Oval-4-Copy" fill="#2A5C20" cx="189.557522" cy="32.0353982" r="1"></circle>
					<circle id="Oval-4-Copy-2" fill="#2A5C20" cx="188.495575" cy="24.9557522" r="1"></circle>
					<path
						d="M49.9211609,75.3442942 C49.593645,75.7824936 49.593645,76.028765 49.9211609,76.0831083 C50.2486768,76.1374517 51.6950774,76.4237058 54.2603626,76.9418707 C54.1812959,76.6206817 54.1812959,76.4326537 54.2603626,76.3777866 C54.3325688,76.3276804 55.1335936,76.7017037 56.0926662,75.9161136 C56.1534164,75.8663522 56.1534164,75.5244332 56.0926662,74.8903564 L51.7811718,74.8903564 L49.9211609,75.3442942 Z"
						id="Path-74"
						fill="#696969"
					></path>
				</g>
			</g>
		</g>
	</g>
</svg>
